<?xml version="1.0" standalone="no"?>
<!DOCTYPE svg PUBLIC "-//W3C//DTD SVG 20010904//EN"
 "http://www.w3.org/TR/2001/REC-SVG-20010904/DTD/svg10.dtd">
<svg version="1.0" xmlns="http://www.w3.org/2000/svg"
 width="70.000000pt" height="50.000000pt" viewBox="0 0 300.000000 200.000000"
 preserveAspectRatio="xMidYMid meet">
<metadata>
Created by potrace 1.10, written by Peter Selinger 2001-2011
</metadata>
<g transform="translate(0.000000,200.000000) scale(0.100000,-0.100000)"
fill="#6fa322" stroke="none">
<path d="M1670 1973 c-33 -28 -48 -66 -54 -143 -4 -46 -7 -55 -23 -53 -86 10
-193 0 -193 -18 0 -5 -6 -9 -14 -9 -17 0 -43 -38 -52 -76 -4 -16 -12 -32 -18
-36 -8 -5 -7 -11 2 -20 21 -21 14 -24 -65 -25 -84 -1 -185 -18 -215 -37 -10
-6 -18 -23 -18 -37 0 -22 9 -31 58 -55 31 -16 90 -38 130 -49 40 -12 70 -23
68 -26 -6 -6 115 6 169 16 38 7 39 7 25 -11 -51 -65 -65 -124 -38 -160 11 -14
17 -28 14 -32 -4 -3 -10 -2 -14 4 -11 18 -121 104 -132 104 -5 0 -10 -18 -10
-40 0 -22 -4 -40 -9 -40 -13 0 -72 20 -111 38 -19 9 -40 17 -47 18 -7 1 -36
13 -65 27 -54 25 -90 39 -96 37 -2 -1 -15 11 -28 27 -38 43 -44 52 -44 60 0 4
-12 24 -26 45 -24 34 -25 39 -10 53 30 30 18 62 -40 102 -39 28 -101 42 -138
32 -16 -5 -51 -3 -78 2 -60 13 -71 40 -38 94 21 34 22 37 5 55 -26 29 -35 25
-87 -27 -61 -64 -68 -80 -68 -157 0 -65 0 -66 -28 -66 -47 0 -72 -25 -72 -73
0 -27 -11 -63 -31 -103 -43 -83 -38 -99 64 -207 l29 -29 -35 -37 c-75 -77 -96
-163 -51 -212 10 -11 14 -22 11 -25 -12 -12 24 -64 49 -70 15 -4 33 -21 44
-43 28 -52 41 -66 78 -85 43 -22 86 -23 107 -3 13 13 15 28 9 75 -5 46 -2 66
11 93 23 45 53 82 68 86 7 1 44 8 82 15 47 8 79 21 97 37 15 13 26 27 24 30
-4 6 14 26 27 29 4 1 8 2 10 3 26 6 105 10 244 11 133 0 177 -3 190 -13 14
-12 16 -12 11 2 -4 11 0 15 15 13 12 -1 24 -3 27 -4 3 -1 13 -2 23 -1 9 1 17
-3 17 -9 0 -6 5 -8 11 -5 6 4 9 1 7 -6 -1 -8 8 -28 21 -46 13 -17 22 -33 20
-36 -2 -3 7 -17 20 -30 13 -15 20 -31 16 -38 -5 -7 -4 -10 1 -6 5 3 14 -10 20
-28 7 -22 7 -32 1 -28 -6 3 -7 1 -3 -6 4 -6 11 -9 16 -6 9 5 35 -33 28 -40 -2
-2 -41 7 -88 20 -46 13 -107 26 -134 30 -28 3 -63 8 -78 11 -17 3 -28 1 -28
-5 0 -6 10 -11 23 -11 12 0 85 -13 161 -30 77 -16 142 -28 144 -25 3 3 14 -3
25 -12 23 -21 22 -17 -16 56 -16 29 -23 50 -17 46 6 -4 15 -17 20 -29 7 -16 9
-17 9 -4 1 9 -10 26 -24 36 -15 12 -21 23 -15 27 7 4 4 16 -8 33 -32 46 -72
139 -72 168 0 22 -2 25 -15 14 -11 -9 -88 -13 -293 -14 -250 -1 -281 -3 -305
-19 -16 -10 -33 -29 -39 -42 -8 -19 -21 -25 -57 -30 -70 -8 -144 -35 -164 -59
-10 -11 -29 -43 -43 -70 -26 -49 -28 -85 -9 -143 7 -21 4 -23 -30 -23 -51 0
-98 31 -119 79 l-18 39 30 63 31 64 -35 3 c-41 4 -92 -24 -76 -40 6 -6 22 -10
36 -10 30 0 34 -18 8 -41 -33 -30 -72 -15 -72 27 0 12 -7 30 -15 40 -21 28
-19 72 6 123 25 53 91 107 118 98 23 -7 49 -35 33 -35 -16 0 -33 -36 -26 -54
8 -20 41 -30 57 -18 7 5 50 12 97 15 75 5 83 4 66 -9 -11 -8 -26 -14 -34 -14
-7 0 -11 -4 -8 -9 10 -16 45 0 71 34 28 38 33 54 9 34 -20 -16 -173 -24 -194
-9 -13 9 -12 12 4 25 11 8 15 15 9 15 -6 0 -16 -7 -23 -15 -10 -12 -10 -18 0
-30 13 -16 6 -35 -15 -35 -20 0 -30 52 -11 62 26 14 19 24 -36 56 -67 38 -148
130 -148 168 0 15 8 37 18 48 25 28 46 99 38 129 -5 23 -3 25 38 31 46 7 139
-10 131 -24 -3 -5 5 -6 17 -2 12 3 19 1 15 -4 -3 -6 -1 -16 4 -24 7 -11 8 -8
6 10 -3 18 -13 28 -37 36 -63 21 -93 90 -71 164 15 50 95 135 110 116 8 -9 4
-18 -14 -34 -74 -64 29 -158 145 -133 48 10 101 -5 140 -40 26 -24 30 -32 20
-44 -7 -8 -18 -15 -24 -15 -16 0 -84 -57 -97 -82 -9 -17 -8 -18 9 -9 15 8 22
8 26 -2 3 -6 4 -3 3 8 -1 12 3 19 11 17 8 -1 11 1 8 6 -3 5 1 18 9 28 14 18
15 18 35 -6 11 -14 36 -54 56 -89 32 -56 43 -66 93 -88 131 -59 291 -117 395
-143 121 -31 139 -44 151 -107 7 -41 95 -213 108 -213 4 0 5 5 2 10 -3 6 -2
10 3 10 5 0 14 -10 21 -22 7 -14 9 -16 6 -5 -3 10 -5 25 -5 33 0 15 -21 15
-32 -1 -4 -5 -5 7 -1 28 3 21 2 37 -4 37 -5 0 -9 10 -9 21 1 12 -5 24 -11 26
-8 3 -13 -3 -13 -14 0 -13 -4 -11 -15 10 -8 15 -12 33 -9 40 2 7 -4 22 -16 32
-11 10 -20 22 -20 27 0 5 43 -34 97 -86 l96 -96 2 -61 c2 -66 -8 -61 -19 9 -3
24 -11 49 -16 55 -6 7 -19 23 -30 37 -14 18 -11 6 11 -42 20 -44 33 -93 39
-145 5 -50 19 -103 39 -148 17 -38 30 -77 30 -85 0 -8 -4 -5 -9 8 -5 12 -14
22 -19 22 -8 0 -35 38 -69 100 -7 14 -21 34 -30 44 -11 12 -12 16 -3 11 10 -5
12 -4 7 4 -4 6 -11 9 -16 6 -5 -3 -11 -1 -14 4 -4 5 -25 12 -49 16 -23 4 -96
19 -162 35 -66 16 -151 33 -190 39 -38 6 -92 17 -118 25 -51 15 -102 44 -94
53 3 2 17 -3 31 -12 19 -13 39 -16 83 -11 225 22 363 15 408 -22 11 -9 8 -3
-6 13 -15 17 -41 50 -58 74 -25 35 -31 40 -31 23 0 -12 4 -22 10 -22 5 0 14
-8 19 -19 10 -17 4 -18 -126 -14 -76 2 -144 0 -153 -3 -39 -17 -120 -21 -129
-5 -3 4 -16 11 -29 15 -26 9 -41 -16 -23 -38 6 -7 9 -15 6 -18 -3 -2 1 -5 7
-6 7 0 39 -10 70 -21 62 -21 81 -26 204 -46 45 -7 90 -17 100 -23 11 -5 43
-13 72 -17 28 -4 50 -10 48 -13 -2 -4 16 -8 39 -8 27 -1 53 -9 69 -22 33 -25
98 -121 90 -133 -3 -5 0 -9 5 -9 6 0 21 -16 33 -35 13 -19 26 -35 29 -35 12 0
31 99 33 175 2 45 10 101 20 128 21 58 15 73 -10 25 -12 -23 -19 -65 -22 -136
-3 -56 -9 -105 -13 -108 -14 -9 -29 43 -22 78 5 24 3 29 -7 23 -10 -6 -11 -2
-7 17 5 17 2 30 -8 38 -12 10 -14 24 -9 62 4 27 1 106 -6 176 -13 126 -13 127
-51 168 -43 48 -71 98 -61 109 4 5 1 5 -5 1 -7 -4 -13 -2 -13 3 0 6 5 11 11
11 5 0 8 4 5 9 -4 5 -1 11 5 13 7 2 4 10 -7 18 -16 13 -17 13 -9 0 7 -13 6
-13 -7 -2 -23 19 -29 49 -9 47 9 0 22 -4 29 -9 7 -4 12 -2 12 5 0 17 45 -44
60 -82 7 -16 14 -28 16 -26 6 6 -26 80 -44 102 -12 14 -7 12 13 -5 17 -14 32
-26 34 -28 4 -2 8 -26 10 -59 1 -7 8 -13 17 -13 13 0 15 -6 10 -27 -5 -21 -4
-24 4 -13 7 11 10 6 10 -22 0 -21 5 -38 11 -38 8 0 8 -4 2 -12 -6 -8 -5 -53 2
-123 7 -70 8 -115 2 -123 -11 -14 -38 -124 -32 -130 2 -2 12 19 22 47 19 56
37 70 22 19 -5 -18 -8 -53 -8 -78 l2 -45 7 55 c4 31 12 66 19 78 8 16 9 27 2
35 -12 16 -8 50 7 55 14 4 16 -14 2 -23 -13 -8 -1 -35 14 -29 8 3 12 20 10 45
l-3 40 42 -37 c23 -21 45 -42 48 -46 3 -5 12 -1 20 8 8 11 9 15 2 11 -11 -7
-77 43 -111 83 -10 13 -11 12 -6 -5 6 -20 5 -20 -10 -1 -22 28 -20 49 9 76 23
22 37 78 16 66 -5 -4 -12 0 -15 6 -3 7 -5 2 -5 -12 2 -41 0 -50 -12 -50 -6 0
-9 10 -8 23 2 12 -5 34 -15 50 -13 19 -17 37 -12 58 3 18 2 28 -4 24 -6 -3
-10 0 -10 8 0 7 -11 36 -25 63 -14 27 -26 64 -28 81 -1 18 -5 33 -9 33 -3 0
-4 8 -2 18 6 21 -45 84 -71 87 -35 4 -65 17 -65 27 0 6 -7 8 -15 4 -8 -3 -15
-1 -15 3 0 5 -10 7 -22 3 -13 -3 -19 -1 -15 6 4 6 0 9 -10 7 -10 -2 -28 -4
-40 -4 -13 -1 -23 -6 -23 -11 0 -6 11 -8 25 -4 14 3 31 2 38 -4 6 -5 30 -13
52 -17 21 -3 52 -13 67 -21 16 -8 33 -12 37 -9 5 3 8 -3 7 -12 -3 -18 -26 -32
-26 -15 0 23 -106 42 -225 41 -78 0 -121 3 -123 10 -2 7 -36 11 -85 12 -119 1
-145 17 -32 20 50 1 122 5 160 9 47 5 20 6 -83 4 -165 -4 -209 -14 -151 -32
57 -19 169 -30 169 -18 0 6 5 4 10 -4 7 -12 34 -15 136 -15 93 0 128 -3 131
-12 3 -7 -3 -13 -13 -13 -13 0 -15 -3 -7 -11 6 -6 9 -17 7 -24 -6 -14 29 -89
54 -118 15 -16 15 -20 2 -27 -8 -5 -31 -20 -50 -35 -25 -18 -36 -22 -39 -13
-2 7 -12 19 -23 26 -26 19 -22 47 17 117 44 79 37 87 -53 68 -77 -17 -156 -11
-234 16 -208 72 -196 117 32 128 90 5 128 2 172 -11 74 -21 82 -20 32 4 -49
25 -95 71 -76 77 6 3 12 15 12 27 0 76 137 123 235 82 40 -17 39 -19 50 89 8
86 32 129 72 133 35 4 42 -4 69 -84 9 -27 26 -62 38 -79 11 -16 20 -36 18 -42
-4 -19 13 -15 33 7 50 55 152 87 218 69 26 -7 45 -22 67 -55 28 -43 30 -48 16
-68 -132 -190 -141 -201 -179 -207 -21 -3 -37 -2 -37 4 0 19 34 83 59 111 14
16 20 25 12 21 -8 -5 0 10 19 33 34 43 41 47 54 35 4 -4 -7 -19 -25 -34 -21
-17 -26 -26 -15 -26 9 0 14 3 11 5 -3 3 9 14 27 25 24 14 28 21 17 27 -10 7
-8 11 10 18 20 7 21 9 7 21 -14 12 -22 10 -54 -12 -45 -29 -90 -95 -128 -190
-18 -45 -31 -64 -38 -57 -17 17 77 193 127 236 23 20 33 32 22 26 -34 -18 -74
-65 -110 -133 -28 -51 -35 -59 -35 -38 0 32 -18 84 -43 127 -30 51 -30 32 -1
-33 19 -40 28 -79 30 -124 1 -36 3 -72 3 -78 1 -9 11 -6 34 7 17 11 44 20 60
20 15 0 36 9 48 21 23 23 36 20 111 -17 40 -21 68 -48 68 -68 0 -15 -64 -35
-126 -40 -54 -5 -73 -10 -86 -27 -10 -12 -15 -25 -12 -30 3 -6 1 -15 -4 -22
-5 -7 -12 -28 -16 -48 -4 -21 -14 -43 -22 -50 -9 -7 -25 -33 -36 -58 -12 -25
-33 -58 -46 -73 -32 -35 -20 -35 50 -3 79 36 136 41 198 19 l52 -19 19 23 c19
25 25 47 34 152 9 94 14 99 68 62 49 -34 77 -82 77 -133 l0 -33 28 26 c49 47
90 60 194 66 96 4 112 0 86 -26 -7 -7 -8 -12 -3 -12 5 0 -4 -14 -20 -30 -29
-30 -58 -43 -35 -15 7 8 9 15 4 15 -5 0 2 10 16 21 l25 21 -25 -14 c-14 -9
-25 -20 -25 -26 0 -6 -26 -29 -57 -52 -67 -47 -79 -65 -16 -22 66 44 75 48 49
19 -14 -15 -20 -27 -14 -27 6 0 13 3 15 8 2 4 25 24 51 46 29 23 46 44 43 52
-3 8 1 14 8 14 18 0 26 -22 26 -70 0 -50 -68 -182 -120 -232 -44 -43 -48 -37
67 -112 81 -53 133 -109 133 -144 0 -23 0 -23 -99 -16 -60 4 -105 3 -116 -3
-12 -7 -29 -7 -51 0 -19 6 -37 7 -40 4 -4 -4 0 -26 9 -49 8 -24 18 -56 21 -73
7 -36 -34 -213 -58 -250 -20 -30 -75 -67 -89 -58 -5 3 -13 0 -17 -7 -18 -30
-220 244 -224 304 -1 27 -2 27 -98 -31 -31 -19 -72 -38 -92 -43 -35 -8 -35 -7
-43 32 l-8 39 -35 -38 c-19 -21 -26 -30 -15 -22 33 26 42 29 42 14 0 -8 -9
-23 -20 -32 -15 -13 -18 -14 -12 -3 8 13 6 13 -8 1 -9 -7 -15 -17 -12 -21 3
-4 -2 -10 -10 -14 -9 -3 -12 -12 -8 -21 3 -9 9 -13 12 -8 3 5 16 10 28 10 22
2 44 -32 58 -90 4 -15 10 -26 13 -23 8 9 -18 90 -39 116 -16 21 -20 23 -29 10
-5 -8 -10 -13 -11 -10 0 3 -2 12 -4 21 -2 13 5 14 57 7 116 -16 133 -40 125
-176 -3 -61 -13 -119 -26 -156 -23 -65 -25 -76 -13 -76 5 0 15 15 23 32 14 32
22 36 109 54 20 4 22 3 10 -5 -12 -8 -8 -11 18 -11 18 0 66 -16 107 -36 41
-20 79 -34 86 -32 19 6 -155 89 -198 95 -21 2 -58 0 -83 -6 -55 -12 -64 -6
-19 13 28 13 30 15 12 16 -13 0 -23 5 -23 11 0 8 16 9 53 5 28 -4 70 -9 92
-12 121 -14 239 -50 308 -94 55 -35 61 -36 48 -12 -17 31 -214 113 -278 115
-7 0 -13 3 -13 6 0 3 -24 6 -53 7 -28 0 -71 2 -94 4 l-43 4 0 96 c0 83 -3 99
-20 118 -12 12 -25 22 -31 22 -6 0 -7 5 -3 12 4 6 3 8 -4 4 -6 -3 -13 -2 -17
4 -3 5 6 12 20 16 14 3 25 10 25 15 0 5 5 9 11 9 6 0 25 11 41 25 27 23 56 26
43 4 -4 -5 -2 -9 4 -9 5 0 17 -18 27 -40 10 -22 21 -40 25 -40 4 0 9 -8 13
-17 5 -18 26 -53 36 -63 3 -3 21 -26 40 -51 43 -58 89 -92 105 -79 7 6 15 7
18 3 13 -12 86 47 110 89 49 85 71 258 42 322 -7 16 -5 17 14 11 12 -3 33 0
50 8 23 12 41 12 105 2 68 -11 79 -10 96 4 51 44 7 128 -108 205 -40 26 -74
51 -77 55 -2 5 7 21 21 37 13 16 43 63 66 104 35 62 42 84 42 130 1 47 -4 63
-28 94 l-29 38 -92 -5 c-63 -3 -106 -11 -139 -26 -60 -26 -63 -26 -71 2 -10
32 -65 86 -104 103 -32 13 -36 13 -57 -7 -13 -12 -22 -24 -22 -28 5 -21 -16
-173 -26 -186 -10 -14 -16 -14 -65 1 -53 15 -77 14 -163 -12 -23 -7 -12 30 24
80 15 21 28 51 28 66 0 14 4 30 9 36 5 5 11 20 13 34 3 23 8 26 76 32 78 8
128 30 138 61 13 42 -67 109 -138 116 -18 2 -4 31 48 100 62 83 63 98 16 161
-32 43 -38 47 -81 60 -45 12 -139 -10 -184 -44 -19 -14 -38 -26 -43 -26 -14 0
-43 53 -59 108 -25 82 -82 110 -135 65z m450 -238 c-7 -8 -17 -12 -22 -9 -6 4
-5 10 3 15 22 14 33 10 19 -6z m-517 -312 c30 -15 56 -40 57 -55 0 -3 -16 -6
-36 -5 -20 1 -32 3 -25 5 6 2 -5 12 -26 23 -43 22 -58 18 -16 -5 15 -8 23 -15
18 -16 -6 0 -20 7 -32 15 -17 12 -21 27 -14 53 3 8 47 -1 74 -15z m85 -70 c10
-34 10 -35 -5 -20 -9 9 -17 26 -18 37 -3 32 11 23 23 -17z m-248 -180 c0 -2
-12 4 -27 15 -16 10 -35 17 -43 15 -10 -3 -11 -2 -3 4 8 6 4 12 -13 20 -25 12
-32 5 -13 -14 9 -9 7 -11 -8 -7 -19 5 -33 39 -33 81 0 9 30 -11 70 -47 39 -34
70 -64 70 -67z m154 45 c7 -7 12 -15 12 -18 0 -10 39 -66 61 -87 18 -17 24
-38 29 -93 l7 -71 -28 23 c-16 13 -54 50 -84 83 -31 33 -73 77 -93 97 -41 41
-49 55 -19 36 16 -10 24 -7 51 15 35 30 46 33 64 15z m-114 -161 c0 -19 55
-131 74 -150 10 -9 13 -17 8 -17 -18 0 -102 144 -102 175 0 9 5 13 10 10 6 -3
10 -12 10 -18z m115 -97 c-4 -11 -2 -20 4 -20 6 0 11 -8 11 -17 0 -15 -2 -14
-15 4 -8 12 -12 28 -9 37 9 23 16 20 9 -4z"/>
<path d="M1722 1925 c-2 -52 20 -151 41 -192 10 -18 17 -41 17 -53 0 -11 5
-20 12 -20 6 0 8 3 5 6 -3 4 -2 16 4 27 6 10 7 17 2 14 -15 -9 -60 119 -73
207 -7 49 -8 49 -8 11z"/>
<path d="M1694 1904 c-4 -14 -2 -44 4 -67 10 -42 10 -42 11 26 1 70 -4 85 -15
41z"/>
<path d="M1751 1884 c0 -11 3 -14 6 -6 3 7 2 16 -1 19 -3 4 -6 -2 -5 -13z"/>
<path d="M1760 1860 c1 -3 7 -30 15 -60 l15 -55 -4 48 c-2 27 -9 54 -15 60 -6
6 -11 9 -11 7z"/>
<path d="M2006 1787 c-19 -19 -37 -29 -39 -23 -2 6 -9 0 -16 -14 -8 -14 -23
-33 -35 -43 -21 -18 -21 -18 0 -8 13 6 25 7 32 1 8 -7 9 -7 3 1 -9 12 75 96
91 91 5 -1 7 2 4 7 -4 5 0 12 6 14 9 4 9 6 1 6 -6 1 -28 -14 -47 -32z"/>
<path d="M2065 1800 c-3 -6 1 -7 9 -4 18 7 21 14 7 14 -6 0 -13 -4 -16 -10z"/>
<path d="M1883 1735 c0 -8 4 -12 9 -9 5 3 6 10 3 15 -9 13 -12 11 -12 -6z"/>
<path d="M1650 1732 c0 -5 6 -15 14 -21 15 -13 32 -88 22 -98 -3 -3 -10 5 -16
18 -8 19 -9 14 -4 -26 3 -27 11 -57 18 -66 10 -15 12 -12 13 19 0 20 2 61 5
89 4 40 1 56 -11 66 -25 22 -41 29 -41 19z"/>
<path d="M1630 1703 c0 -13 5 -23 10 -23 13 0 13 11 0 30 -8 12 -10 11 -10 -7z"/>
<path d="M1399 1693 c-13 -16 -12 -17 4 -4 9 7 17 15 17 17 0 8 -8 3 -21 -13z"/>
<path d="M1761 1674 c0 -11 3 -14 6 -6 3 7 2 16 -1 19 -3 4 -6 -2 -5 -13z"/>
<path d="M1429 1659 c65 -13 121 -50 196 -131 38 -40 63 -63 56 -51 -6 12 -15
25 -21 28 -5 3 -8 11 -6 18 1 7 1 8 -2 4 -2 -4 -30 17 -63 48 -64 61 -127 95
-174 94 -24 -1 -22 -3 14 -10z"/>
<path d="M1372 1635 c-11 -12 -10 -15 2 -15 8 0 17 4 21 9 8 13 34 7 80 -20
60 -34 85 -55 77 -64 -4 -5 -2 -5 4 -2 6 3 22 -5 37 -19 40 -37 45 -29 6 12
-18 20 -52 45 -74 56 -22 11 -48 29 -58 39 -21 23 -76 25 -95 4z"/>
<path d="M1636 1637 c3 -10 9 -15 12 -12 3 3 0 11 -7 18 -10 9 -11 8 -5 -6z"/>
<path d="M1790 1624 c0 -14 4 -23 10 -19 6 3 10 15 10 26 0 10 -4 19 -10 19
-5 0 -10 -12 -10 -26z"/>
<path d="M2036 1603 c-6 -14 -5 -15 5 -6 7 7 10 15 7 18 -3 3 -9 -2 -12 -12z"/>
<path d="M1636 1583 c7 -37 14 -42 14 -10 0 14 -4 28 -9 32 -6 3 -8 -6 -5 -22z"/>
<path d="M1814 1586 c3 -14 2 -28 -4 -31 -5 -3 -9 -18 -9 -33 l1 -27 8 30 c6
22 8 25 10 10 1 -11 1 -30 0 -42 -1 -15 4 -23 14 -23 12 0 15 6 11 23 -10 38
-13 61 -14 90 -1 15 -6 27 -12 27 -7 0 -9 -10 -5 -24z"/>
<path d="M622 1579 c-8 -12 -9 -18 -3 -15 6 4 17 -8 26 -26 l15 -33 -6 35 c-9
53 -17 63 -32 39z"/>
<path d="M725 1560 c-3 -6 1 -7 9 -4 18 7 21 14 7 14 -6 0 -13 -4 -16 -10z"/>
<path d="M681 1504 c0 -11 3 -14 6 -6 3 7 2 16 -1 19 -3 4 -6 -2 -5 -13z"/>
<path d="M1290 1500 c0 -6 7 -10 15 -10 8 0 15 2 15 4 0 2 -7 6 -15 10 -8 3
-15 1 -15 -4z"/>
<path d="M446 1488 c3 -5 10 -6 15 -3 13 9 11 12 -6 12 -8 0 -12 -4 -9 -9z"/>
<path d="M648 1493 c6 -2 10 -8 8 -11 -2 -4 2 -13 10 -20 15 -13 18 -4 8 22
-3 9 -14 16 -23 15 -10 0 -11 -2 -3 -6z"/>
<path d="M2030 1494 c-65 -22 -89 -39 -108 -77 -28 -58 -52 -133 -51 -160 0
-13 6 -3 13 23 22 77 58 150 84 170 31 25 49 26 31 3 -7 -10 0 -7 16 7 17 14
34 28 40 32 10 9 -1 9 -25 2z"/>
<path d="M2120 1480 c8 -5 22 -9 30 -9 10 0 8 3 -5 9 -27 12 -43 12 -25 0z"/>
<path d="M565 1454 c-19 -14 -19 -15 2 -11 26 4 38 13 26 20 -4 3 -17 -1 -28
-9z"/>
<path d="M516 1452 c-3 -5 1 -15 8 -21 11 -10 14 -9 12 3 -3 21 -13 29 -20 18z"/>
<path d="M633 1440 c14 -11 31 -20 38 -20 7 0 10 -3 6 -6 -3 -3 6 -32 20 -63
30 -67 33 -82 21 -98 -6 -7 -5 -14 3 -19 8 -4 9 -3 5 4 -4 7 -1 12 8 12 22 0
21 4 -18 94 -19 44 -33 83 -30 87 2 5 -4 6 -15 4 -11 -2 -25 3 -32 11 -6 8
-16 14 -22 14 -5 0 2 -9 16 -20z"/>
<path d="M1180 1456 c0 -2 13 -6 29 -8 17 -2 28 -1 25 4 -5 8 -54 12 -54 4z"/>
<path d="M1260 1450 c8 -5 24 -10 34 -10 26 0 18 6 -19 14 -22 5 -26 4 -15 -4z"/>
<path d="M1758 1455 c-3 -3 1 -29 9 -58 7 -28 16 -83 19 -122 3 -38 9 -72 13
-75 11 -7 20 -70 10 -70 -4 0 -11 9 -14 21 -4 11 -9 19 -11 16 -2 -2 1 -18 7
-35 9 -27 13 -30 30 -19 15 9 21 8 32 -7 12 -16 13 -6 10 70 -5 119 -10 137
-12 42 0 -43 -5 -78 -10 -78 -8 0 -23 63 -36 150 -3 19 -8 49 -12 65 -4 17 -7
35 -7 40 -1 6 -7 20 -13 31 -7 12 -9 24 -6 28 3 3 4 6 1 6 -2 0 -7 -2 -10 -5z"/>
<path d="M1876 1445 c-3 -9 -6 -24 -5 -33 0 -9 5 -4 10 12 9 32 6 48 -5 21z"/>
<path d="M1987 1390 c-35 -37 -58 -55 -61 -47 -3 6 -3 1 0 -12 5 -17 3 -21 -6
-16 -9 5 -11 4 -6 -3 4 -6 -3 -30 -15 -53 -17 -35 -19 -47 -10 -73 l10 -31 -5
33 c-3 19 -1 32 5 32 6 0 11 7 11 16 0 8 13 20 29 25 16 6 32 16 35 24 4 11 0
11 -22 -1 -14 -7 -28 -11 -30 -9 -5 4 44 74 86 124 l29 34 94 0 c58 0 85 3 69
7 -14 5 -55 8 -91 9 l-67 1 -55 -60z"/>
<path d="M400 1422 c0 -5 7 -9 15 -9 8 0 12 4 9 9 -3 4 -9 8 -15 8 -5 0 -9 -4
-9 -8z"/>
<path d="M446 1422 c-2 -4 4 -8 14 -8 10 0 16 4 14 8 -3 4 -9 8 -14 8 -5 0
-11 -4 -14 -8z"/>
<path d="M570 1416 c7 -7 13 -7 20 0 6 6 3 10 -10 10 -13 0 -16 -4 -10 -10z"/>
<path d="M726 1422 c-3 -5 5 -18 17 -29 25 -24 137 -88 137 -79 0 3 -14 13
-30 21 -17 9 -28 20 -26 24 3 5 -4 17 -17 27 l-22 19 19 -22 c21 -25 16 -29
-15 -12 -11 5 -17 14 -14 19 4 6 -1 7 -11 3 -11 -4 -15 -2 -11 4 4 6 0 16 -7
22 -8 7 -17 8 -20 3z"/>
<path d="M637 1409 c7 -7 15 -10 18 -7 3 3 -2 9 -12 12 -14 6 -15 5 -6 -5z"/>
<path d="M490 1400 c-9 -6 -10 -10 -3 -10 6 0 15 5 18 10 8 12 4 12 -15 0z"/>
<path d="M440 1390 c8 -5 20 -10 25 -10 6 0 3 5 -5 10 -8 5 -19 10 -25 10 -5
0 -3 -5 5 -10z"/>
<path d="M368 1377 c8 -9 22 -19 32 -22 18 -6 37 -40 32 -58 -1 -5 2 -6 8 -2
6 4 5 16 -5 34 -8 16 -11 32 -7 36 4 5 1 5 -6 1 -7 -4 -25 0 -40 10 -23 15
-25 15 -14 1z"/>
<path d="M640 1386 c0 -2 7 -7 16 -10 8 -3 12 -2 9 4 -6 10 -25 14 -25 6z"/>
<path d="M860 1373 c0 -6 8 -17 18 -24 16 -13 16 -13 2 6 -8 11 -16 22 -17 24
-2 2 -3 0 -3 -6z"/>
<path d="M350 1340 c4 -29 0 -41 -12 -34 -7 4 -8 3 -4 -5 6 -8 12 -9 20 -2 7
6 16 7 21 3 4 -4 2 4 -5 18 -17 33 -22 38 -20 20z"/>
<path d="M1731 1329 c-1 -9 6 -32 14 -50 18 -43 18 -16 0 31 -7 19 -14 28 -14
19z"/>
<path d="M1504 1322 c-18 -12 -36 -53 -30 -69 5 -13 9 -13 22 -2 8 7 20 22 26
33 10 19 8 18 -16 -3 -31 -29 -35 -15 -5 23 21 27 22 31 3 18z"/>
<path d="M1620 1327 c0 -5 9 -20 20 -34 11 -14 20 -21 20 -15 0 12 -39 60 -40
49z"/>
<path d="M2261 1323 c-1 -6 4 -24 9 -39 16 -41 1 -119 -34 -177 -25 -41 -30
-56 -20 -65 9 -8 16 -6 30 11 19 21 19 21 -1 7 -19 -14 -19 -14 -3 5 9 11 17
25 17 30 1 6 6 11 11 11 6 1 12 2 15 3 3 0 1 10 -5 20 -7 13 -7 22 0 26 14 9
11 103 -5 145 -7 19 -14 30 -14 23z"/>
<path d="M590 1310 c8 -5 20 -10 25 -10 6 0 3 5 -5 10 -8 5 -19 10 -25 10 -5
0 -3 -5 5 -10z"/>
<path d="M930 1314 c0 -8 62 -35 72 -32 6 2 -8 11 -31 20 -22 9 -41 15 -41 12z"/>
<path d="M648 1293 c7 -3 16 -2 19 1 4 3 -2 6 -13 5 -11 0 -14 -3 -6 -6z"/>
<path d="M815 1284 c-49 -13 -55 -40 -8 -38 18 1 30 -2 27 -7 -3 -5 -24 -9
-47 -9 -50 0 -80 -14 -48 -23 12 -3 24 -1 27 4 3 5 19 9 35 9 17 0 37 7 45 15
9 8 11 15 6 15 -5 0 -9 6 -9 14 0 8 7 14 16 14 9 -1 25 2 37 5 14 5 26 1 39
-13 10 -11 25 -20 34 -19 14 0 14 1 1 6 -8 3 -23 13 -34 22 -21 19 -66 21
-121 5z"/>
<path d="M2296 1285 c3 -11 8 -47 11 -80 2 -33 4 -65 5 -71 2 -13 35 -6 45 9
3 6 1 7 -5 3 -12 -7 -35 27 -26 37 10 10 -7 84 -23 104 -14 17 -14 17 -7 -2z"/>
<path d="M366 1275 c4 -8 10 -12 15 -9 11 6 2 24 -11 24 -5 0 -7 -7 -4 -15z"/>
<path d="M588 1283 c7 -3 16 -2 19 1 4 3 -2 6 -13 5 -11 0 -14 -3 -6 -6z"/>
<path d="M1539 1263 c-13 -16 -12 -17 4 -4 16 13 21 21 13 21 -2 0 -10 -8 -17
-17z"/>
<path d="M447 1263 c-8 -12 30 -29 40 -19 4 3 -1 6 -9 6 -9 0 -18 5 -20 12 -3
9 -6 9 -11 1z"/>
<path d="M1041 1266 c4 -4 29 -16 55 -26 29 -11 41 -20 29 -20 -18 -1 -17 -2
4 -11 13 -5 29 -8 35 -5 6 2 2 5 -9 5 -15 1 -17 3 -6 10 9 6 1 13 -30 24 -24
8 -53 18 -64 23 -11 4 -17 4 -14 0z"/>
<path d="M1016 1245 c17 -7 44 -16 60 -20 25 -4 24 -3 -6 8 -19 8 -46 17 -60
20 -19 5 -17 3 6 -8z"/>
<path d="M1664 1233 c0 -17 4 -29 9 -26 4 2 10 -3 13 -12 6 -14 9 -14 16 -3 7
9 8 3 4 -17 -5 -24 -4 -27 5 -15 9 12 10 10 5 -9 -3 -17 -2 -21 6 -13 7 7 6
22 -3 49 -7 21 -14 32 -17 24 -3 -9 -11 -3 -22 19 l-17 33 1 -30z"/>
<path d="M2252 1225 c0 -16 2 -22 5 -12 2 9 2 23 0 30 -3 6 -5 -1 -5 -18z"/>
<path d="M425 1210 c-9 -14 20 -23 51 -16 14 4 23 3 21 -1 -3 -5 3 -9 14 -9
18 0 19 1 4 12 -10 8 -31 10 -52 7 -26 -4 -34 -3 -29 5 4 7 5 12 2 12 -3 0 -8
-5 -11 -10z"/>
<path d="M925 1210 c-19 -8 -19 -9 3 -9 12 -1 22 4 22 9 0 6 -1 10 -2 9 -2 0
-12 -4 -23 -9z"/>
<path d="M963 1207 c2 -7 13 -13 25 -15 12 -2 20 -7 18 -10 -2 -4 21 -7 52 -8
32 0 91 -3 132 -7 92 -7 78 -3 -70 23 -63 10 -125 21 -138 24 -15 3 -22 1 -19
-7z"/>
<path d="M2508 1207 c11 -13 11 -15 0 -13 -7 1 -19 5 -26 10 -8 4 -11 3 -10
-5 2 -6 -3 -14 -11 -17 -9 -3 -11 0 -6 9 4 8 -1 5 -13 -6 -11 -11 -41 -36 -66
-55 -48 -37 -47 -56 1 -22 16 11 33 20 38 21 6 1 10 6 10 12 0 6 23 18 50 27
49 17 66 40 35 50 -13 4 -13 3 -2 -11z"/>
<path d="M635 1200 c-3 -5 6 -12 20 -16 29 -7 41 -1 30 15 -8 14 -42 14 -50 1z"/>
<path d="M2543 1185 c0 -6 6 -12 12 -12 6 0 12 6 12 12 0 6 -6 12 -12 12 -6 0
-12 -6 -12 -12z"/>
<path d="M625 1170 c-4 -6 -21 -8 -41 -4 -21 4 -34 2 -34 -4 0 -11 13 -16 70
-27 33 -7 34 -6 15 9 -18 13 -18 15 -3 16 10 0 22 -8 27 -18 5 -10 20 -18 33
-19 13 0 18 1 11 4 -7 2 -10 10 -7 18 3 7 1 16 -5 20 -6 3 -11 -2 -12 -12 0
-14 -2 -15 -6 -3 -11 27 -37 38 -48 20z"/>
<path d="M2585 1170 c-3 -6 1 -7 9 -4 18 7 21 14 7 14 -6 0 -13 -4 -16 -10z"/>
<path d="M2544 1145 c-24 -18 -38 -19 -28 -2 4 7 3 9 -2 4 -5 -5 -9 -14 -9
-19 0 -6 -6 -13 -14 -16 -9 -3 -11 0 -5 9 7 12 5 12 -9 1 -9 -8 -22 -10 -29
-6 -7 4 -10 4 -6 -1 9 -9 -11 -37 -21 -31 -4 3 -7 -6 -7 -19 l0 -24 26 20 c14
11 49 36 78 55 28 19 52 37 52 39 0 8 -5 6 -26 -10z m-64 -39 c0 -3 -15 -14
-32 -26 l-33 -22 30 26 c31 27 35 29 35 22z"/>
<path d="M2685 1150 c3 -5 8 -10 11 -10 2 0 4 5 4 10 0 6 -5 10 -11 10 -5 0
-7 -4 -4 -10z"/>
<path d="M730 1143 c0 -5 23 -21 51 -37 29 -16 49 -24 45 -18 -17 28 147 35
403 18 81 -5 131 -5 128 1 -3 5 -23 10 -44 12 -21 1 -76 6 -123 10 -83 8 -231
7 -358 -2 -45 -3 -67 -1 -77 9 -15 15 -25 18 -25 7z"/>
<path d="M2300 1100 c-9 -6 -10 -10 -3 -10 6 0 15 5 18 10 8 12 4 12 -15 0z"/>
<path d="M2670 1099 c0 -5 5 -7 10 -4 6 3 10 8 10 11 0 2 -4 4 -10 4 -5 0 -10
-5 -10 -11z"/>
<path d="M1728 1048 c5 -71 10 -77 11 -15 0 31 -2 57 -7 57 -4 0 -6 -19 -4
-42z"/>
<path d="M2104 1072 c3 -19 31 -28 40 -14 3 5 -5 14 -18 20 -20 9 -24 8 -22
-6z"/>
<path d="M816 1053 c-6 -14 -5 -15 5 -6 7 7 10 15 7 18 -3 3 -9 -2 -12 -12z"/>
<path d="M2639 1034 c-13 -15 -18 -25 -10 -22 13 4 49 48 39 48 -2 0 -15 -12
-29 -26z"/>
<path d="M369 1033 c-13 -16 -12 -17 4 -4 9 7 17 15 17 17 0 8 -8 3 -21 -13z"/>
<path d="M1388 1027 c16 -17 20 -26 11 -29 -9 -3 -8 -6 3 -10 11 -5 15 -2 13
10 -2 9 -4 20 -4 24 -1 4 -11 13 -23 19 l-23 12 23 -26z"/>
<path d="M2158 1043 c6 -2 9 -10 6 -15 -4 -7 -2 -8 4 -4 18 11 14 26 -5 25
-11 0 -13 -3 -5 -6z"/>
<path d="M2247 1025 c-10 -14 -14 -25 -9 -25 6 0 17 11 26 25 21 32 7 32 -17
0z"/>
<path d="M2375 1027 c10 -24 -227 -147 -283 -147 -13 0 -8 9 18 34 19 18 50
53 69 76 32 40 33 41 8 25 -15 -9 -27 -21 -27 -26 0 -4 -19 -26 -42 -48 -38
-37 -42 -39 -54 -23 -8 9 -14 12 -14 6 0 -6 3 -14 7 -18 4 -3 8 -12 9 -19 1
-7 5 -30 9 -52 8 -47 13 -57 25 -50 5 3 12 0 16 -6 4 -8 3 -9 -4 -5 -7 4 -12
2 -12 -5 0 -12 69 -79 79 -76 9 3 66 -57 63 -66 -1 -4 3 -18 9 -30 6 -12 -2
-6 -19 13 -16 19 -33 32 -37 28 -9 -8 62 -78 71 -70 4 4 4 -1 1 -11 -4 -10 -3
-16 3 -12 5 3 16 -8 25 -24 18 -35 21 -65 4 -41 -9 12 -10 12 -5 -3 3 -10 6
-24 7 -30 0 -7 4 -3 8 8 7 17 10 13 21 -25 7 -25 13 -55 14 -67 0 -13 5 -23 9
-23 5 0 7 -12 5 -28 -2 -16 -8 -26 -17 -24 -9 2 -11 -3 -7 -13 3 -9 6 -20 6
-23 0 -4 5 0 10 8 8 12 10 10 11 -10 0 -14 3 -19 6 -11 5 11 7 11 14 0 7 -11
9 -10 9 4 0 9 -4 17 -10 17 -5 0 -10 14 -10 32 0 49 -32 164 -62 221 -5 11 -7
21 -4 25 3 3 -3 12 -14 19 -11 8 -18 18 -15 23 3 5 1 11 -5 15 -5 3 -10 15
-10 26 0 18 6 20 70 17 86 -4 70 16 -18 21 -7 1 -10 7 -7 14 4 6 0 4 -8 -5
-10 -13 -16 -15 -25 -6 -9 9 -12 9 -12 -1 0 -7 -19 3 -42 22 -24 19 -56 42
-73 51 -24 13 -25 15 -6 10 16 -4 21 -3 17 5 -4 6 -2 11 5 11 7 0 -6 13 -29
29 -39 29 -60 51 -47 51 4 0 21 -11 38 -23 34 -25 87 -30 94 -9 3 8 -7 12 -31
12 -19 0 -47 5 -61 12 -27 12 -34 38 -10 38 33 0 116 35 203 87 50 30 92 56
92 58 0 3 -9 9 -20 15 -15 8 -18 7 -15 -3z"/>
<path d="M1566 1017 c3 -10 9 -15 12 -12 3 3 0 11 -7 18 -10 9 -11 8 -5 -6z"/>
<path d="M1980 1021 c0 -7 -5 -9 -12 -5 -7 5 -8 3 -3 -5 5 -9 10 -10 18 -2 6
6 8 14 4 18 -4 3 -7 1 -7 -6z"/>
<path d="M379 999 l-24 -20 28 17 c15 9 27 18 27 20 0 8 -8 4 -31 -17z"/>
<path d="M2096 1005 c4 -8 8 -15 10 -15 2 0 4 7 4 15 0 8 -4 15 -10 15 -5 0
-7 -7 -4 -15z"/>
<path d="M555 1000 c-3 -6 1 -7 9 -4 18 7 21 14 7 14 -6 0 -13 -4 -16 -10z"/>
<path d="M1850 1006 c0 -2 9 -6 20 -9 11 -3 18 -1 14 4 -5 9 -34 13 -34 5z"/>
<path d="M1995 1000 c-3 -5 -1 -10 4 -10 6 0 11 5 11 10 0 6 -2 10 -4 10 -3 0
-8 -4 -11 -10z"/>
<path d="M2035 1001 c3 -5 0 -11 -6 -13 -5 -2 3 -13 20 -26 21 -15 32 -18 37
-10 4 6 3 9 -2 6 -5 -3 -17 3 -26 13 -11 12 -13 19 -5 22 6 2 3 6 -7 10 -9 4
-15 3 -11 -2z"/>
<path d="M657 993 c-13 -13 -7 -21 13 -16 11 3 17 9 14 14 -6 11 -18 12 -27 2z"/>
<path d="M510 978 c0 -4 4 -8 9 -8 6 0 12 4 15 8 3 5 -1 9 -9 9 -8 0 -15 -4
-15 -9z"/>
<path d="M1743 930 c0 -25 2 -35 4 -22 2 12 2 32 0 45 -2 12 -4 2 -4 -23z"/>
<path d="M1985 954 c29 -14 29 -15 3 -9 -14 2 -34 8 -45 11 -12 5 -15 4 -8 -4
15 -15 87 -33 78 -20 -4 7 0 9 10 5 33 -12 16 4 -18 19 -44 18 -59 17 -20 -2z"/>
<path d="M2390 950 c-12 -8 -10 -10 8 -10 13 0 20 4 17 10 -7 12 -6 12 -25 0z"/>
<path d="M2320 910 c0 -5 3 -10 8 -11 4 0 27 -3 52 -5 57 -7 42 11 -17 20 -27
4 -43 2 -43 -4z"/>
<path d="M495 889 c-4 -6 -5 -12 -2 -15 2 -3 7 2 10 11 7 17 1 20 -8 4z"/>
<path d="M1850 874 c0 -16 7 -39 15 -50 13 -16 16 -17 25 -4 14 21 13 26 -15
57 l-24 28 -1 -31z"/>
<path d="M1987 879 c7 -7 15 -10 18 -7 3 3 -2 9 -12 12 -14 6 -15 5 -6 -5z"/>
<path d="M1318 863 c7 -3 16 -2 19 1 4 3 -2 6 -13 5 -11 0 -14 -3 -6 -6z"/>
<path d="M1955 850 c-10 -11 -13 -20 -7 -20 6 0 16 9 22 20 6 11 9 20 7 20 -2
0 -12 -9 -22 -20z"/>
<path d="M480 849 c0 -5 5 -7 10 -4 6 3 10 8 10 11 0 2 -4 4 -10 4 -5 0 -10
-5 -10 -11z"/>
<path d="M1158 853 c6 -2 18 -2 25 0 6 3 1 5 -13 5 -14 0 -19 -2 -12 -5z"/>
<path d="M1456 849 c3 -5 -5 -9 -18 -10 -22 0 -22 -1 -3 -8 13 -6 23 -4 28 6
5 7 14 10 20 7 7 -4 8 -3 4 1 -10 12 -38 15 -31 4z"/>
<path d="M1198 833 c12 -2 30 -2 40 0 9 3 -1 5 -23 4 -22 0 -30 -2 -17 -4z"/>
<path d="M1503 824 c0 -7 4 -11 9 -8 4 3 8 0 8 -5 0 -6 4 -11 10 -11 13 0 2
27 -14 33 -7 3 -13 -1 -13 -9z"/>
<path d="M2483 823 c0 -8 6 -9 19 -2 10 5 18 11 18 12 0 2 -8 3 -18 3 -10 0
-19 -6 -19 -13z"/>
<path d="M1618 815 c-2 -11 10 -44 26 -72 28 -50 46 -66 46 -43 0 6 -5 10 -12
10 -9 0 -9 3 0 12 15 15 15 68 1 88 -8 11 -9 3 -6 -32 3 -36 1 -45 -9 -41 -8
3 -11 9 -9 14 3 4 -3 25 -13 46 -16 30 -20 34 -24 18z"/>
<path d="M1901 803 c0 -25 1 -26 10 -8 7 15 8 12 4 -15 l-5 -35 20 25 c31 39
23 8 -9 -36 -44 -60 -82 -163 -70 -186 8 -15 7 -24 -5 -37 -9 -10 -16 -25 -16
-33 0 -12 8 -8 31 13 17 16 36 29 43 29 11 0 96 174 96 196 0 23 -31 71 -59
92 -38 28 -41 28 -40 -5z m79 -88 c-7 -8 -17 -12 -23 -8 -6 4 -7 1 -2 -7 6 -9
4 -12 -7 -8 -8 4 -21 2 -29 -3 -11 -7 -11 -9 -1 -9 7 0 10 -4 7 -10 -9 -15 2
-12 30 6 15 10 25 12 25 5 0 -6 -4 -11 -9 -11 -12 0 -111 -90 -111 -101 0 -5
11 -2 24 6 13 9 27 12 30 7 6 -11 -21 -52 -35 -52 -6 0 -3 7 5 16 20 19 21 31
1 14 -15 -12 -35 -6 -35 11 0 5 16 27 36 49 34 37 36 56 4 28 -8 -7 -6 -3 4
10 11 12 16 22 11 22 -4 0 -2 7 5 15 10 12 38 24 79 34 2 1 -2 -6 -9 -14z"/>
<path d="M1840 800 c-6 -11 -8 -25 -4 -31 4 -6 2 -14 -4 -18 -5 -3 -13 -28
-17 -56 -6 -50 -6 -50 9 -21 22 39 46 135 36 141 -5 3 -14 -4 -20 -15z"/>
<path d="M1881 784 c0 -11 3 -14 6 -6 3 7 2 16 -1 19 -3 4 -6 -2 -5 -13z"/>
<path d="M2422 787 c-12 -7 -20 -16 -17 -19 10 -9 43 3 49 18 7 17 -2 17 -32
1z"/>
<path d="M2221 780 c-14 -9 -23 -50 -11 -50 6 0 9 -3 7 -7 -3 -5 24 -8 59 -8
45 0 64 4 64 13 0 17 -33 29 -38 14 -2 -7 -22 -12 -44 -12 -40 0 -41 1 -24 19
10 11 24 17 32 14 8 -3 14 1 14 11 0 11 -8 15 -26 14 -14 -1 -29 -5 -33 -8z
m0 -33 c-10 -9 -11 -8 -5 6 3 10 9 15 12 12 3 -3 0 -11 -7 -18z"/>
<path d="M998 763 c-41 -14 -52 -14 -73 -3 -20 11 -27 11 -40 0 -14 -12 -14
-15 6 -36 11 -12 35 -25 52 -28 18 -3 41 -8 52 -10 11 -2 52 -7 90 -10 62 -6
119 -15 205 -31 14 -2 63 -16 110 -31 47 -14 105 -31 130 -38 28 -8 39 -15 30
-18 -10 -5 -8 -7 7 -7 36 -2 126 -49 96 -52 -4 0 2 -4 15 -9 35 -15 50 -76 23
-100 -13 -11 -31 -51 -31 -68 0 -10 11 -24 24 -30 20 -9 24 -17 22 -44 -4 -49
-4 -49 -25 -36 -11 7 -17 16 -14 22 3 5 1 6 -5 2 -6 -3 -14 -1 -17 5 -4 6 -37
24 -74 41 -36 16 -75 34 -85 40 -53 28 -318 -5 -403 -51 -12 -6 -29 -11 -38
-11 -9 0 -31 -7 -48 -15 -18 -8 -57 -20 -87 -28 -37 -9 -56 -19 -58 -30 -5
-24 25 -22 164 8 118 26 260 35 324 21 105 -23 262 -84 253 -99 -3 -5 -1 -7 5
-3 17 10 82 -33 75 -50 -5 -13 -8 -12 -25 3 -10 9 -28 18 -39 20 -19 3 -19 1
5 -24 14 -16 33 -37 42 -48 14 -17 14 -16 -1 8 -9 16 -14 31 -11 34 3 3 14
-10 25 -28 l21 -34 -5 40 c-4 38 -4 39 11 20 8 -11 13 -28 10 -37 -2 -10 0
-18 5 -18 5 0 9 1 9 3 1 1 3 63 6 138 l6 136 -32 25 c-32 25 -32 26 -15 52 10
14 24 26 32 26 12 0 14 9 10 42 -12 87 -77 129 -303 198 -85 26 -151 50 -146
55 4 4 1 5 -6 1 -20 -12 -118 4 -101 16 10 7 8 8 -7 3 -59 -16 -304 29 -281
52 3 2 14 0 25 -6 13 -7 35 -6 77 5 84 22 188 14 324 -24 63 -18 118 -31 124
-29 6 2 -25 13 -69 25 -43 12 -101 29 -128 38 -73 24 -191 27 -248 7z m493
-459 c117 -35 229 -114 229 -161 0 -26 0 -26 -20 -8 -12 11 -18 25 -15 34 5
13 4 13 -6 4 -10 -10 -9 -16 2 -30 12 -16 11 -16 -8 1 -13 10 -20 22 -18 27 3
4 1 10 -5 14 -6 4 -8 10 -5 14 8 15 -32 42 -105 72 -58 23 -88 29 -154 30 -44
0 -91 -3 -104 -8 -15 -6 13 -8 80 -7 70 1 112 -3 131 -13 15 -7 27 -11 27 -8
0 4 6 3 13 -2 6 -4 14 -8 17 -8 27 -5 77 -36 77 -49 0 -21 -6 -20 -42 4 -52
35 -151 60 -236 60 -43 0 -79 -4 -79 -8 0 -5 35 -9 78 -9 42 0 88 -3 102 -6
51 -11 140 -49 162 -69 l23 -20 -27 16 c-31 18 -38 20 -38 8 0 -5 17 -16 38
-24 46 -19 122 -74 122 -89 0 -6 -14 1 -31 15 -45 38 -202 112 -289 136 -106
29 -206 26 -383 -10 -169 -34 -160 -33 -152 -20 3 6 15 10 25 10 11 0 67 16
125 36 244 82 360 99 466 68z"/>
<path d="M1220 280 c-12 -7 -10 -9 7 -7 12 0 19 5 17 9 -6 10 -6 10 -24 -2z"/>
<path d="M1154 262 c-7 -4 15 -8 48 -9 34 -2 59 -1 57 1 -10 8 -95 15 -105 8z"/>
<path d="M1440 221 c47 -16 93 -32 103 -36 10 -4 17 -3 17 4 0 9 -14 15 -60
26 -3 1 -12 4 -20 8 -26 10 -94 27 -110 27 -8 -1 23 -14 70 -29z"/>
<path d="M2184 764 c-4 -10 -9 -22 -11 -26 -2 -5 0 -8 5 -8 10 0 24 41 17 48
-3 3 -8 -4 -11 -14z"/>
<path d="M2045 750 c-3 -5 -2 -10 4 -10 5 0 13 5 16 10 3 6 2 10 -4 10 -5 0
-13 -4 -16 -10z"/>
<path d="M2670 753 c1 -5 20 -17 43 -28 23 -11 41 -25 40 -32 -2 -7 6 -17 17
-23 24 -13 25 -2 2 26 -18 23 -102 70 -102 57z"/>
<path d="M1000 730 c-21 -4 26 -9 115 -12 131 -5 163 -10 250 -37 54 -17 104
-30 109 -28 13 4 -69 31 -188 62 -91 23 -206 29 -286 15z"/>
<path d="M2668 713 c7 -3 16 -2 19 1 4 3 -2 6 -13 5 -11 0 -14 -3 -6 -6z"/>
<path d="M2065 677 c4 -15 4 -38 1 -52 -7 -29 -71 -96 -82 -86 -4 3 -4 1 0 -6
4 -7 14 -9 24 -6 15 6 15 4 -2 -15 -11 -12 -17 -22 -14 -22 10 0 67 47 63 52
-3 2 6 15 20 28 25 24 33 50 15 50 -20 0 -9 39 18 60 22 17 23 19 4 10 -18 -9
-27 -8 -38 1 -13 11 -14 9 -9 -14z m16 -84 c-6 -10 -20 -29 -31 -42 -16 -19
-23 -22 -33 -12 -7 8 -8 11 -1 9 6 -2 23 12 38 30 30 35 43 42 27 15z"/>
<path d="M1460 686 c0 -2 9 -6 20 -9 11 -3 18 -1 14 4 -5 9 -34 13 -34 5z"/>
<path d="M2396 672 c-3 -6 -1 -14 5 -17 14 -9 20 -2 10 14 -6 8 -11 9 -15 3z"/>
<path d="M2475 670 c3 -5 14 -10 23 -10 15 0 15 2 2 10 -20 13 -33 13 -25 0z"/>
<path d="M2130 655 c0 -8 2 -15 4 -15 2 0 6 7 10 15 3 8 1 15 -4 15 -6 0 -10
-7 -10 -15z"/>
<path d="M1495 650 c-3 -5 -1 -10 4 -10 6 0 11 5 11 10 0 6 -2 10 -4 10 -3 0
-8 -4 -11 -10z"/>
<path d="M1526 641 c5 -5 27 -14 49 -21 22 -7 57 -21 77 -31 43 -22 48 -23 48
-9 0 16 -77 50 -96 43 -11 -4 -15 -3 -10 5 3 6 1 14 -5 18 -8 4 -9 3 -5 -4 9
-14 9 -14 -33 -2 -19 5 -30 6 -25 1z"/>
<path d="M1982 592 c-46 -67 -69 -116 -31 -66 13 18 37 48 52 68 16 19 27 41
25 48 -3 7 -23 -16 -46 -50z"/>
<path d="M2157 615 c-4 -8 -2 -17 3 -20 5 -3 7 -12 4 -19 -3 -8 -1 -17 5 -21
7 -4 8 0 4 11 -5 12 -3 15 6 9 7 -4 11 -18 8 -31 -5 -26 7 -41 18 -24 4 6 10
8 15 5 16 -10 20 13 8 40 -8 18 -14 22 -19 13 -10 -16 -39 20 -32 39 3 7 1 13
-5 13 -5 0 -12 -7 -15 -15z m53 -75 c-6 -11 -12 -20 -14 -20 -2 0 -2 9 1 20 3
11 9 20 15 20 5 0 4 -9 -2 -20z"/>
<path d="M2343 608 c-19 -40 -21 -55 -8 -55 8 0 11 7 7 15 -3 10 -1 13 6 8 8
-4 10 -2 6 7 -10 27 13 27 30 2 9 -14 21 -23 26 -20 12 7 72 -84 64 -96 -6
-10 -33 12 -31 25 1 5 -5 11 -13 13 -9 3 -11 1 -5 -4 6 -4 11 -15 13 -23 2 -8
8 -17 13 -18 6 -3 5 -10 -2 -18 -9 -11 -9 -14 0 -14 7 0 10 -4 7 -9 -4 -5 5
-4 18 2 18 9 22 16 15 28 -4 9 -6 19 -2 22 3 4 1 12 -5 19 -6 7 -10 16 -9 20
1 5 -10 21 -25 37 -38 40 -36 72 2 39 8 -7 7 -4 -3 8 -11 13 -27 19 -47 18
-16 -1 -30 2 -30 7 0 17 -17 9 -27 -13z m129 -170 c-7 -7 -12 -8 -12 -2 0 14
12 26 19 19 2 -3 -1 -11 -7 -17z"/>
<path d="M2295 610 c-3 -5 -2 -10 4 -10 5 0 13 5 16 10 3 6 2 10 -4 10 -5 0
-13 -4 -16 -10z"/>
<path d="M2110 591 c0 -6 4 -13 10 -16 6 -3 7 1 4 9 -7 18 -14 21 -14 7z"/>
<path d="M1617 579 c7 -7 15 -10 18 -7 3 3 -2 9 -12 12 -14 6 -15 5 -6 -5z"/>
<path d="M1669 552 c24 -16 61 -27 61 -16 0 6 -65 34 -77 33 -4 0 3 -8 16 -17z"/>
<path d="M2485 559 c-4 -6 -5 -12 -2 -15 2 -3 7 2 10 11 7 17 1 20 -8 4z"/>
<path d="M1825 548 c3 -8 -1 -31 -10 -51 -8 -20 -15 -52 -15 -72 0 -28 -4 -35
-20 -35 -11 0 -20 -5 -20 -11 0 -5 -4 -8 -9 -4 -19 11 -21 -14 -3 -27 24 -17
47 -57 47 -83 0 -11 6 -19 13 -17 15 3 46 -64 38 -85 -4 -8 -1 -11 5 -7 8 4 9
-1 4 -17 -7 -23 -7 -24 9 -4 18 23 21 55 6 55 -6 0 -10 6 -8 13 2 6 0 12 -4
12 -12 0 -49 79 -43 93 3 7 1 11 -4 8 -5 -3 -16 5 -25 19 -20 30 -20 31 0 39
8 3 12 2 9 -3 -3 -5 0 -13 6 -17 8 -4 9 -3 5 4 -4 7 -3 12 3 12 6 0 8 6 5 14
-3 8 -1 17 4 20 6 3 8 23 5 45 -4 26 0 46 11 63 15 23 15 26 1 38 -13 11 -15
10 -10 -2z"/>
<path d="M2401 534 c6 -7 16 -11 21 -8 11 7 3 17 -18 20 -12 2 -13 -1 -3 -12z"/>
<path d="M2351 530 c-1 -9 3 -20 8 -25 16 -19 43 -150 43 -210 -1 -50 1 -56 9
-35 12 30 5 112 -15 170 -15 43 -13 65 5 55 5 -4 6 2 2 11 -4 11 -8 13 -11 6
-4 -14 -25 3 -35 28 -5 13 -6 13 -6 0z"/>
<path d="M2220 495 c0 -4 41 -95 43 -95 6 0 -1 81 -7 87 -7 7 -36 14 -36 8z"/>
<path d="M1751 463 c7 -10 15 -20 16 -22 2 -2 3 5 3 17 0 14 -6 22 -16 22 -14
0 -15 -3 -3 -17z"/>
<path d="M1910 393 c0 -7 9 -18 20 -25 11 -7 20 -20 20 -28 0 -13 2 -13 11 0
9 12 10 11 6 -6 -3 -13 1 -21 10 -21 10 0 13 7 9 21 -3 12 -6 28 -6 36 0 13
-1 13 -10 0 -8 -13 -11 -12 -24 5 -9 11 -16 16 -16 10 0 -5 -5 -3 -10 5 -6 10
-10 11 -10 3z"/>
<path d="M2451 395 c0 -5 3 -17 9 -25 5 -8 5 -19 1 -25 -5 -5 -5 -19 0 -30 8
-22 10 -16 14 48 1 21 -1 33 -5 27 -6 -9 -9 -9 -13 1 -3 8 -6 10 -6 4z"/>
<path d="M2275 370 c-3 -5 -1 -10 4 -10 6 0 11 5 11 10 0 6 -2 10 -4 10 -3 0
-8 -4 -11 -10z"/>
<path d="M1706 345 c-3 -8 -1 -14 4 -12 5 1 15 -7 23 -17 11 -15 15 -16 19 -5
3 8 -5 22 -17 31 -20 15 -24 15 -29 3z"/>
<path d="M2001 337 c17 -32 19 -33 19 -10 0 12 -7 23 -15 27 -13 5 -14 2 -4
-17z"/>
<path d="M2382 335 c0 -16 2 -22 5 -12 2 9 2 23 0 30 -3 6 -5 -1 -5 -18z"/>
<path d="M2431 344 c0 -11 3 -14 6 -6 3 7 2 16 -1 19 -3 4 -6 -2 -5 -13z"/>
<path d="M1842 330 c0 -14 2 -19 5 -12 2 6 2 18 0 25 -3 6 -5 1 -5 -13z"/>
<path d="M2280 347 c0 -11 29 -67 35 -67 2 0 2 8 -2 18 -8 22 -33 59 -33 49z"/>
<path d="M1865 290 c4 -14 7 -33 8 -42 1 -10 5 -18 9 -18 4 0 10 -20 14 -45 3
-25 9 -43 13 -40 9 9 8 64 -1 58 -5 -2 -8 3 -8 12 0 10 5 13 13 9 6 -4 5 1 -4
12 -9 10 -24 33 -33 49 -15 26 -16 27 -11 5z"/>
<path d="M2000 291 c0 -5 6 -14 13 -20 10 -8 14 -7 14 4 0 8 -6 16 -14 19 -7
3 -13 2 -13 -3z"/>
<path d="M1840 270 c6 -11 13 -20 16 -20 2 0 0 9 -6 20 -6 11 -13 20 -16 20
-2 0 0 -9 6 -20z"/>
<path d="M1976 273 c-6 -14 -5 -15 5 -6 7 7 10 15 7 18 -3 3 -9 -2 -12 -12z"/>
<path d="M1750 274 c0 -3 14 -30 31 -61 30 -54 31 -60 25 -135 -5 -65 -4 -78
8 -78 8 0 19 7 24 16 6 10 14 14 22 9 9 -6 9 -9 -1 -16 -11 -7 -10 -9 4 -9 18
0 22 10 9 25 -9 10 -42 95 -50 125 -2 8 -4 30 -5 49 0 19 -3 29 -5 23 -6 -19
-19 -14 -27 11 -4 12 -7 25 -6 29 0 3 -6 9 -14 12 -8 3 -15 3 -15 0z"/>
<path d="M1990 240 c0 -11 -4 -20 -10 -20 -5 0 -10 -5 -10 -11 0 -5 4 -8 9 -4
5 3 11 -9 14 -27 2 -18 4 -7 4 25 1 31 -1 57 -3 57 -2 0 -4 -9 -4 -20z"/>
<path d="M1926 238 c3 -5 10 -6 15 -3 13 9 11 12 -6 12 -8 0 -12 -4 -9 -9z"/>
<path d="M2016 233 c-6 -14 -5 -15 5 -6 7 7 10 15 7 18 -3 3 -9 -2 -12 -12z"/>
<path d="M1930 210 c0 -6 4 -9 9 -6 5 3 9 -5 9 -19 0 -14 -4 -22 -8 -20 -4 3
-11 -2 -14 -11 -4 -11 -2 -15 8 -11 8 3 17 -1 20 -10 4 -9 9 -13 12 -10 3 3 2
11 -2 18 -4 7 -8 26 -8 43 -1 27 -26 53 -26 26z"/>
<path d="M2011 164 c0 -11 3 -14 6 -6 3 7 2 16 -1 19 -3 4 -6 -2 -5 -13z"/>
<path d="M1779 163 c0 -5 -2 -27 -5 -49 -3 -23 -2 -44 3 -47 4 -3 10 19 11 49
2 30 1 54 -2 54 -3 0 -6 -3 -7 -7z"/>
<path d="M1875 140 c-8 -13 13 -109 27 -127 13 -16 28 -7 27 15 0 14 -2 14 -8
-2 -7 -19 -8 -18 -14 4 -3 14 -2 29 3 34 6 6 9 24 9 41 l-2 30 -7 -35 c-7 -34
-9 -32 -14 17 -3 28 -12 38 -21 23z"/>
<path d="M1993 125 c-9 -24 1 -27 15 -5 8 13 8 20 2 20 -6 0 -13 -7 -17 -15z"/>
<path d="M1937 107 c-3 -8 -1 -20 4 -28 5 -8 9 -27 9 -42 0 -27 1 -28 17 -11
13 13 14 19 5 22 -15 5 -16 29 0 38 8 5 9 2 5 -9 -3 -10 -2 -17 3 -17 11 0 13
11 4 34 -6 15 -8 15 -21 -1 -13 -16 -14 -16 -9 -1 6 21 -10 34 -17 15z"/>
<path d="M2231 91 c31 -10 62 -22 69 -26 8 -5 11 -4 7 3 -8 12 -93 42 -116 41
-9 0 9 -8 40 -18z"/>
<path d="M1513 93 c9 -2 25 -2 35 0 9 3 1 5 -18 5 -19 0 -27 -2 -17 -5z"/>
<path d="M2333 73 c-18 -7 -16 -23 2 -23 9 0 42 -11 75 -25 33 -14 65 -25 72
-25 7 1 -22 15 -64 32 -43 17 -75 35 -72 39 6 10 5 10 -13 2z"/>
<path d="M1555 37 c15 -21 30 -35 33 -32 3 3 -9 20 -27 38 l-34 32 28 -38z"/>
<path d="M1610 26 c0 -2 8 -10 18 -17 15 -13 16 -12 3 4 -13 16 -21 21 -21 13z"/>
<path d="M1488 13 c7 -3 16 -2 19 1 4 3 -2 6 -13 5 -11 0 -14 -3 -6 -6z"/>
</g>
</svg>
