<?xml version="1.0" standalone="no"?>
<!DOCTYPE svg PUBLIC "-//W3C//DTD SVG 20010904//EN"
 "http://www.w3.org/TR/2001/REC-SVG-20010904/DTD/svg10.dtd">
<svg version="1.0" xmlns="http://www.w3.org/2000/svg"
 width="312.000000pt" height="450.000000pt" viewBox="0 0 312.000000 450.000000"
 preserveAspectRatio="xMidYMid meet">
<metadata>
Created by potrace 1.10, written by Peter Selinger 2001-2011
</metadata>
<g transform="translate(0.000000,450.000000) scale(0.100000,-0.100000)"
fill="#C8E0A3" stroke="none">
<path d="M1234 4484 c3 -8 11 -45 16 -82 13 -77 47 -159 81 -192 13 -12 60
-46 104 -75 44 -29 88 -61 97 -71 16 -18 14 -19 -82 -18 -111 1 -134 11 -146
68 -12 56 -64 142 -130 212 l-65 69 5 -38 c3 -21 19 -60 35 -88 32 -50 29 -66
-5 -28 -21 24 -123 73 -132 64 -9 -8 156 -171 208 -206 25 -17 57 -33 73 -36
50 -10 37 -19 -21 -15 -60 5 -95 21 -127 61 -85 107 -105 113 -321 109 -96 -2
-174 -5 -174 -7 0 -11 75 -104 110 -134 53 -49 106 -75 170 -83 45 -6 67 -2
136 22 80 27 85 28 155 16 39 -7 77 -9 83 -4 14 11 55 7 68 -6 23 -23 -174
-153 -213 -140 -11 4 127 98 173 119 15 6 25 16 22 20 -7 11 -152 -75 -203
-121 -36 -33 -39 -38 -22 -43 47 -12 195 69 249 138 9 11 23 25 31 30 18 11 9
-5 -40 -70 -39 -52 -95 -162 -86 -171 2 -3 14 17 27 43 32 68 97 160 126 179
20 13 41 16 103 11 93 -6 202 -47 294 -109 34 -23 65 -42 70 -40 4 1 7 -3 7
-9 0 -6 -9 -9 -20 -6 -11 3 -20 1 -20 -3 0 -5 -13 -11 -30 -15 -16 -4 -32 -10
-35 -15 -11 -18 -134 -80 -178 -89 -64 -15 -193 -22 -219 -12 -16 6 -5 9 45
14 44 4 97 19 160 46 52 22 113 43 136 47 44 7 62 21 38 30 -12 4 -120 -30
-172 -56 -45 -22 -171 -60 -199 -60 l-31 1 40 35 c62 54 125 90 188 110 51 16
65 16 115 5 84 -18 113 -21 107 -12 -3 5 -26 16 -52 25 -117 40 -242 2 -362
-109 -25 -23 -55 -47 -66 -53 -18 -10 -15 -13 30 -33 70 -31 198 -30 287 1 82
30 107 23 169 -42 27 -29 49 -47 49 -41 0 17 -76 90 -111 109 -17 9 -27 19
-23 23 45 38 95 71 115 75 37 9 99 -32 136 -89 38 -58 92 -115 109 -115 7 0
14 -4 16 -8 2 -4 26 -21 53 -36 28 -16 58 -36 69 -45 21 -18 89 -121 84 -127
-2 -2 -26 8 -53 21 -28 14 -88 31 -134 39 -47 8 -96 23 -110 33 -14 10 -43 27
-63 38 -21 11 -38 23 -38 27 0 5 -7 8 -15 8 -13 0 -15 8 -11 38 3 20 2 28 -2
17 -9 -25 -26 -29 -55 -13 -12 6 -40 15 -62 18 -22 4 -52 11 -67 15 -24 6 -28
4 -28 -13 0 -19 4 -21 49 -15 39 4 59 1 95 -17 25 -12 46 -25 46 -30 0 -4 -21
-22 -47 -39 -36 -24 -54 -30 -75 -26 -21 5 -30 2 -34 -10 -18 -47 41 -33 119
28 28 22 44 27 63 23 30 -8 153 -75 139 -77 -5 0 -26 -2 -45 -3 -57 -5 -110
-16 -200 -44 -107 -32 -148 -34 -156 -7 -11 32 -68 81 -117 100 -36 13 -57 15
-93 9 -49 -9 -68 -29 -39 -40 9 -4 21 0 29 11 14 19 66 23 108 6 37 -14 77
-50 95 -86 l16 -29 -24 17 c-22 15 -106 57 -115 57 -2 0 -4 -9 -4 -21 0 -18 4
-20 26 -15 25 7 94 -25 94 -43 0 -5 12 -7 28 -5 15 2 20 1 12 -2 -8 -3 -31
-17 -52 -31 -20 -13 -47 -23 -59 -21 -16 2 -25 -3 -27 -14 -5 -23 10 -23 50 2
61 37 63 19 4 -35 -42 -39 -67 -55 -87 -55 -31 0 -41 -10 -30 -29 12 -19 116
52 158 108 38 49 77 72 173 102 75 23 192 49 223 49 21 0 21 -1 -3 -16 -14
-10 -43 -34 -65 -54 -29 -28 -53 -40 -85 -45 -66 -10 -101 -31 -132 -76 -28
-39 -37 -79 -18 -79 12 0 30 34 30 57 0 31 51 72 103 82 25 4 48 6 51 4 2 -2
-17 -23 -42 -46 -58 -52 -61 -57 -55 -74 8 -21 26 -10 44 28 9 19 27 43 39 54
l23 20 -6 -45 c-6 -49 -35 -130 -46 -130 -4 0 -15 -6 -25 -13 -15 -11 -17 -17
-7 -35 16 -30 40 -27 46 6 3 15 14 54 24 87 11 33 27 88 37 123 13 47 27 71
55 97 55 50 104 62 192 47 67 -12 177 -62 186 -86 2 -6 20 -26 39 -46 25 -25
33 -29 29 -15 -7 20 -7 20 8 1 8 -11 15 -24 15 -29 0 -5 9 -20 20 -35 15 -19
17 -27 8 -33 -6 -4 -19 -4 -27 1 -9 4 -52 16 -96 25 -43 10 -99 27 -125 38
-45 20 -134 86 -126 94 5 5 150 -39 223 -68 28 -11 59 -29 69 -40 21 -23 31
-24 31 -3 0 18 -44 42 -155 85 -77 30 -211 63 -220 55 -7 -8 90 -107 121 -123
46 -23 236 -75 324 -88 57 -8 56 -30 -1 -55 -92 -41 -200 -57 -341 -51 l-50 3
35 15 c80 35 185 54 288 54 56 0 102 3 102 7 0 4 -46 9 -102 10 -78 2 -122 -2
-181 -17 -68 -18 -187 -69 -209 -89 -4 -4 73 -4 170 -1 178 6 244 18 294 54
13 8 27 15 33 15 13 -1 80 -88 109 -143 13 -23 32 -58 43 -77 68 -121 162
-510 123 -510 -5 0 -10 4 -10 10 0 17 -117 110 -139 110 -21 0 -136 52 -183
83 -55 37 -150 125 -175 163 -10 15 -20 20 -35 16 -17 -4 -20 -2 -15 12 5 11
3 15 -5 10 -8 -5 -9 -2 -5 10 4 11 3 15 -4 11 -6 -4 -13 2 -16 14 -3 12 -10
21 -15 21 -6 0 -7 12 -4 28 4 17 3 22 -2 14 -7 -11 -10 -10 -14 5 -3 10 -9 25
-12 34 -5 10 -2 16 9 16 8 0 15 -8 15 -18 0 -9 5 -19 11 -21 5 -2 11 -11 13
-21 1 -10 5 -16 8 -15 9 5 48 -34 43 -43 -8 -13 58 -61 186 -134 75 -43 143
-91 177 -125 31 -30 52 -47 49 -36 -6 15 -3 17 13 13 11 -3 20 -3 20 -1 0 12
-58 56 -123 95 -40 23 -84 50 -99 60 -15 11 -30 19 -34 19 -3 0 -36 21 -73 47
-36 25 -71 46 -78 46 -7 0 -10 3 -8 7 2 4 -18 29 -45 55 -51 51 -63 73 -32 60
9 -4 50 -16 89 -26 173 -44 299 -131 362 -249 18 -33 43 -73 56 -89 14 -16 25
-34 25 -39 0 -6 5 -14 10 -17 32 -19 -41 143 -94 210 -35 44 -107 115 -118
115 -3 0 -13 6 -20 13 -41 37 -141 74 -253 92 -64 10 -94 20 -113 37 l-25 23
7 -45 c8 -51 52 -148 91 -200 49 -66 160 -173 218 -211 34 -22 82 -43 115 -50
128 -26 185 -57 218 -120 23 -46 29 -178 10 -236 -17 -50 -63 -108 -94 -117
-9 -3 -60 -17 -112 -31 -128 -34 -213 -94 -324 -231 -53 -65 -126 -208 -126
-247 l0 -26 34 23 c21 14 56 25 88 29 72 7 202 51 260 88 75 48 158 139 198
218 38 75 51 119 36 124 -9 4 -11 -2 -8 -18 2 -12 -1 -26 -7 -29 -6 -4 -11 -1
-11 6 0 7 -11 -11 -25 -40 -13 -29 -36 -67 -50 -86 -14 -18 -25 -36 -25 -40 0
-10 -63 -68 -108 -99 -38 -27 -140 -67 -222 -87 -25 -6 -55 -16 -67 -22 -40
-20 -38 1 3 43 55 57 135 118 232 175 45 27 90 54 100 59 76 45 153 105 136
105 -5 0 -21 -8 -34 -17 -24 -16 -24 -16 -11 0 8 10 11 20 8 24 -4 3 -16 -6
-28 -21 -26 -34 -87 -76 -219 -151 -58 -34 -104 -66 -103 -73 2 -6 -4 -9 -12
-6 -8 4 -15 1 -15 -5 0 -17 -85 -108 -98 -103 -7 2 -12 8 -12 13 0 6 4 8 8 5
4 -2 9 5 9 16 1 11 9 28 17 37 9 10 13 21 9 24 -3 4 1 8 10 8 9 1 21 2 26 3 5
0 23 19 39 41 65 91 186 183 291 221 112 42 205 112 218 164 7 24 7 23 14 -10
4 -19 4 -39 1 -45 -4 -5 -7 -23 -8 -40 -1 -16 -7 -31 -13 -33 -6 -2 -11 -15
-11 -28 0 -111 -110 -391 -207 -526 -46 -65 -68 -79 -89 -58 -6 6 -35 20 -65
31 -46 18 -82 22 -234 25 l-180 5 45 -25 c95 -53 196 -79 315 -80 113 -1 135
2 147 19 5 6 8 3 8 -6 0 -17 -40 -59 -40 -43 -1 5 -7 -6 -15 -24 -8 -18 -19
-31 -25 -27 -6 4 -10 3 -9 -2 5 -27 -1 -35 -16 -23 -8 7 -12 17 -8 23 7 11 -2
7 -56 -30 -19 -13 -73 -35 -120 -49 -47 -14 -99 -32 -116 -39 -16 -8 -32 -12
-34 -9 -10 9 53 63 104 89 51 25 212 68 226 59 4 -2 9 3 13 11 7 20 2 19 -114
-9 -142 -36 -234 -88 -269 -155 -12 -22 -12 -22 36 -16 50 8 272 88 310 112
24 16 44 0 24 -20 -6 -6 -11 -7 -11 -2 0 5 -13 -4 -30 -20 -16 -16 -30 -35
-30 -42 0 -7 -4 -13 -9 -13 -4 0 -25 -11 -46 -25 -71 -49 -203 -69 -268 -41
-41 17 -84 55 -101 88 -12 24 -11 32 15 84 16 31 34 63 41 71 14 17 -5 63 -26
63 -20 0 -28 -28 -15 -51 8 -15 6 -33 -6 -70 -10 -28 -20 -48 -23 -44 -3 3
-14 33 -23 68 -50 178 -52 183 -75 153 -20 -27 -18 -44 7 -51 11 -4 28 -25 39
-49 23 -54 35 -126 22 -126 -13 0 -47 47 -56 78 -9 28 -46 30 -46 2 0 -11 3
-20 8 -20 11 0 96 -80 90 -86 -3 -2 -27 0 -54 6 -57 13 -104 59 -104 101 0 33
-13 44 -29 25 -9 -11 -5 -24 20 -61 35 -52 91 -84 146 -85 25 0 44 -11 85 -50
29 -28 58 -50 65 -50 7 0 13 -5 13 -10 0 -6 -10 -8 -22 -5 -13 3 -54 12 -93
20 -164 34 -262 75 -294 125 -12 19 -52 57 -88 84 -51 38 -67 46 -74 35 -14
-23 -10 -29 20 -29 21 0 45 -14 86 -52 59 -54 60 -75 2 -41 -36 22 -65 20 -47
-2 6 -8 17 -12 24 -9 8 3 40 -9 72 -26 49 -26 53 -30 24 -23 -19 4 -73 7 -119
6 -75 -3 -87 0 -104 18 -18 19 -21 20 -29 5 -17 -30 2 -36 112 -36 137 0 144
-2 125 -40 -21 -41 -72 -76 -128 -91 -45 -11 -50 -10 -72 11 -24 22 -45 20
-45 -5 0 -21 99 -30 146 -14 44 16 114 78 114 101 0 20 61 28 98 13 43 -18
193 -55 258 -63 l59 -7 -57 -31 c-71 -39 -116 -49 -137 -30 -25 21 -110 66
-126 66 -9 0 -15 -9 -15 -21 0 -18 4 -20 25 -15 27 7 91 -20 114 -48 28 -34
-47 -72 -125 -63 -38 4 -44 2 -44 -14 0 -11 2 -19 4 -19 16 0 143 33 158 41
36 19 18 -15 -32 -61 -57 -55 -84 -59 -172 -29 -79 26 -199 26 -273 -2 -54
-20 -72 -39 -37 -39 9 0 42 -23 72 -51 113 -104 240 -140 361 -104 32 10 59
22 59 26 0 5 -7 6 -15 3 -8 -4 -15 -1 -15 5 0 7 -10 5 -26 -6 -18 -12 -48 -17
-98 -17 -61 -1 -81 4 -136 31 -36 18 -83 48 -104 67 -21 20 -44 37 -50 39 -6
2 -8 8 -4 12 12 13 114 -12 206 -51 146 -60 179 -68 207 -50 22 15 25 14 35
-2 7 -10 13 -13 16 -6 5 11 54 7 54 -5 0 -4 -39 -30 -87 -58 -100 -59 -209
-98 -300 -107 l-63 -7 -48 48 c-44 45 -98 132 -122 198 -18 53 63 -50 110
-137 23 -43 43 -78 46 -78 18 0 -69 158 -116 210 -12 14 -35 41 -51 60 -35 42
-36 34 -5 -52 32 -86 70 -152 121 -204 36 -38 38 -42 18 -42 -13 0 -23 4 -23
8 0 4 -21 28 -47 54 -62 61 -157 108 -208 104 l-38 -3 74 -55 c41 -30 96 -66
122 -80 26 -14 47 -28 47 -32 0 -4 -19 -5 -42 -2 -24 3 -71 1 -106 -4 -45 -6
-69 -5 -86 3 -59 31 -129 47 -175 41 -92 -13 -186 -76 -251 -171 -16 -24 -30
-45 -30 -47 0 -2 39 -4 88 -5 48 -1 128 -4 177 -5 106 -3 149 14 204 82 61 75
85 90 137 90 34 0 30 -17 -8 -33 -31 -13 -224 -184 -241 -213 -16 -27 61 -4
111 33 18 14 35 23 38 20 3 -2 -5 -21 -17 -41 -24 -41 -41 -106 -29 -106 15 0
113 117 151 180 20 32 39 77 42 98 9 50 34 63 117 61 36 -2 80 1 99 5 24 6 36
4 42 -5 6 -10 11 -11 17 -3 4 6 27 14 52 18 24 4 50 12 57 18 21 17 16 -8 -10
-50 -33 -52 -67 -163 -73 -235 -2 -34 -7 -77 -9 -95 -6 -53 10 -37 56 57 24
49 47 90 50 90 3 1 5 -21 3 -49 -1 -27 1 -50 5 -50 17 0 70 119 86 193 16 73
16 129 1 168 -5 11 9 26 47 52 29 20 63 48 75 62 12 14 28 25 34 25 10 0 9 3
-1 9 -11 7 -9 10 8 16 12 3 37 27 56 52 19 25 35 41 35 36 0 -6 -7 -16 -15
-23 -8 -7 -15 -17 -15 -22 0 -5 -7 -16 -15 -24 -8 -9 -15 -24 -15 -35 0 -10
-5 -19 -11 -19 -5 0 -7 -5 -3 -12 5 -7 2 -9 -9 -5 -29 11 -42 -55 -41 -213 0
-80 5 -163 11 -185 l10 -40 11 27 c14 34 105 142 195 233 84 84 130 151 157
228 17 49 20 78 18 200 -3 140 -3 143 25 187 37 62 43 71 58 102 11 26 22 29
25 7 1 -5 2 -10 4 -11 1 -2 3 -10 5 -18 1 -8 19 -54 38 -101 39 -92 51 -157
62 -313 15 -210 -44 -23 -70 223 -8 82 -26 141 -41 141 -8 0 -14 5 -14 11 0 5
5 7 12 3 7 -4 8 -3 4 4 -11 18 -15 15 -27 -16 -20 -53 -28 -129 -34 -342 -5
-184 -4 -213 8 -200 24 26 56 122 63 185 13 141 19 155 28 68 9 -83 33 -159
61 -191 l24 -27 1 115 c0 168 -29 310 -81 400 -24 39 -27 87 -9 121 7 12 32
43 56 67 24 24 41 49 37 55 -3 5 -1 7 5 3 13 -8 48 39 57 77 7 26 19 35 28 20
2 -5 2 -2 0 5 -1 8 4 23 13 35 9 12 14 16 12 8 -2 -8 18 -37 44 -65 79 -83 96
-114 109 -195 13 -85 7 -162 -26 -341 -8 -41 -16 -95 -19 -119 -3 -24 -12 -51
-21 -60 -16 -15 -17 -14 -10 7 4 15 3 22 -5 20 -16 -4 -56 70 -85 156 -38 114
-34 256 11 410 17 58 17 59 5 52 -5 -4 -7 4 -4 15 4 16 2 20 -8 17 -8 -2 -15
-18 -17 -34 -1 -16 -14 -85 -27 -153 -37 -185 -34 -232 23 -351 24 -52 126
-209 135 -210 4 0 7 12 8 28 1 32 2 38 23 117 32 124 58 318 52 390 -11 137
-56 229 -136 280 -22 14 -40 30 -40 37 0 6 13 32 29 58 22 36 27 50 18 59 -9
9 -8 11 4 6 12 -4 18 1 23 19 7 29 5 42 -6 38 -11 -3 -10 16 1 22 15 10 28
-16 46 -94 32 -138 153 -351 250 -440 27 -25 27 -25 20 -2 -3 12 -8 35 -10 50
-7 46 -35 143 -59 204 -13 32 -21 58 -19 58 3 0 29 -25 58 -55 28 -30 54 -55
58 -55 22 0 -51 218 -99 299 -40 67 -121 154 -136 145 -4 -3 -8 0 -8 5 0 6 -6
10 -12 9 -16 -4 -16 33 0 157 7 50 12 133 12 185 0 117 -19 412 -30 463 -8 36
-7 38 29 54 96 45 193 203 235 385 3 14 9 33 12 42 13 33 -23 15 -69 -35 -26
-28 -51 -49 -54 -45 -3 3 -1 11 5 18 22 27 65 161 78 243 3 22 8 44 11 49 3 5
0 7 -8 4 -28 -9 -150 -174 -194 -263 -25 -51 -55 -131 -67 -178 l-22 -86 -32
57 c-17 31 -39 71 -49 88 -23 38 -16 58 27 78 40 19 93 97 115 169 27 87 21
245 -17 417 -17 80 -33 159 -36 175 -12 73 -11 73 -103 -80 -75 -126 -103
-240 -83 -335 30 -138 42 -205 44 -259 2 -43 7 -61 17 -61 8 0 11 6 7 16 -4
11 0 14 17 12 17 -2 22 2 21 19 0 12 3 20 7 18 10 -7 37 84 50 169 8 55 8 100
0 170 -14 121 -13 222 3 266 l13 35 1 -41 c0 -22 11 -92 23 -155 13 -69 22
-155 23 -219 1 -129 -18 -191 -81 -255 -24 -23 -43 -46 -43 -49 0 -3 -10 -16
-21 -27 -25 -25 -28 -22 -60 51 -11 24 -41 66 -67 91 -110 109 -119 141 -69
249 47 101 67 203 68 355 1 70 -1 128 -3 130 -2 2 -15 -13 -29 -35 -24 -36
-40 -91 -54 -184 -4 -21 -8 -36 -10 -35 -1 2 -6 37 -10 77 -4 41 -11 87 -15
104 -14 48 -53 128 -62 128 -11 0 0 -373 14 -465 9 -59 31 -125 41 -125 5 0
-2 51 -17 125 -15 73 -27 403 -13 380 19 -35 39 -189 39 -305 -1 -98 2 -128
14 -142 14 -14 14 -22 2 -55 -7 -21 -17 -41 -23 -45 -13 -9 -37 12 -31 28 2 7
-4 20 -14 29 -10 9 -28 37 -40 62 -19 40 -21 59 -18 186 3 141 3 142 -30 218
-18 42 -42 85 -52 94 -21 19 -28 7 -8 -13 6 -6 9 -15 5 -18 -11 -11 -19 3 -21
35 -1 24 -23 54 -101 137 -114 123 -152 168 -160 195 -13 39 -22 17 -35 -80
-21 -158 4 -351 45 -351 16 0 29 -30 17 -42 -5 -5 -25 12 -47 37 -23 28 -43
44 -52 41 -8 -3 -11 -1 -8 4 3 5 -17 26 -45 46 -50 36 -58 48 -40 59 14 9 12
111 -4 170 -7 28 -28 82 -47 120 l-34 70 -5 -59 -5 -60 -48 97 c-26 53 -51 97
-55 97 -13 0 5 -183 23 -235 26 -75 61 -152 74 -159 6 -4 11 -15 11 -24 0 -11
-3 -13 -8 -6 -8 13 -30 20 -81 29 -33 6 -71 22 -71 30 0 2 6 2 14 -1 18 -7 27
43 19 101 -12 94 -100 183 -297 300 -37 22 -56 29 -52 19z m47 -44 c13 0 167
-106 202 -138 44 -41 75 -101 82 -159 7 -56 -10 -84 -21 -36 -14 58 -54 120
-110 172 -33 30 -80 73 -105 97 -51 49 -66 55 -48 22 14 -27 41 -54 126 -126
62 -53 92 -92 112 -145 10 -25 9 -27 -8 -17 -61 32 -143 94 -170 129 -43 54
-74 126 -77 181 -1 25 0 39 3 33 2 -7 9 -13 14 -13z m375 -137 c39 -85 84
-240 84 -288 -1 -57 -90 136 -111 239 -31 151 -25 162 27 49z m-462 -21 c57
-70 103 -158 90 -170 -3 -4 -9 -1 -11 6 -3 7 -21 34 -40 59 -71 93 -116 173
-98 173 2 0 29 -31 59 -68z m566 -73 c32 -90 38 -168 18 -216 l-12 -28 -3 30
c-2 17 -13 66 -23 109 -18 71 -28 207 -15 194 3 -3 19 -43 35 -89z m-546 -52
c63 -61 81 -84 60 -73 -40 19 -214 174 -214 190 0 18 72 -37 154 -117z m767
69 c1 -6 0 -18 -1 -26 -1 -8 1 -12 5 -8 9 8 46 -23 39 -33 -2 -5 20 -32 49
-61 128 -126 200 -261 235 -439 9 -50 6 -73 -10 -63 -7 5 -8 2 -3 -6 4 -7 11
-27 15 -46 7 -29 6 -32 -9 -25 -9 5 -25 19 -36 31 -16 17 -17 24 -7 41 11 16
9 19 -8 19 -34 0 -96 39 -147 93 -28 29 -52 59 -55 67 -4 13 -7 13 -23 0 -10
-8 -16 -10 -12 -4 4 7 0 15 -9 18 -9 4 -14 9 -11 13 4 3 13 0 22 -7 21 -17 20
-13 -17 71 -25 60 -33 94 -38 174 -4 55 -8 88 -8 73 -1 -15 -6 -29 -10 -32 -7
-4 -7 29 2 79 2 11 4 37 5 57 1 29 4 36 16 32 8 -4 16 -11 16 -18z m-976 -47
c22 -6 42 -14 45 -18 3 -4 22 -17 42 -30 41 -24 58 -59 37 -72 -8 -5 -15 -4
-17 1 -2 5 -22 -1 -45 -13 -88 -46 -215 -22 -304 59 -21 20 -32 32 -24 28 9
-4 12 -3 7 4 -4 6 -13 9 -21 5 -10 -3 -15 2 -15 17 0 13 -4 19 -12 14 -6 -4
-8 -3 -5 3 4 6 32 11 63 12 31 0 59 3 63 7 8 8 138 -3 186 -17z m1266 -301
c11 -21 11 -22 -4 -9 -10 7 -17 17 -17 22 0 15 9 10 21 -13z m-291 -9 c0 -6
-4 -7 -10 -4 -5 3 -10 11 -10 16 0 6 5 7 10 4 6 -3 10 -11 10 -16z m305 -29
c-3 -5 -2 -10 3 -10 15 0 24 -32 12 -44 -7 -7 -10 -3 -10 11 0 12 -5 25 -10
28 -10 6 -5 25 6 25 3 0 2 -4 -1 -10z m261 -90 c-7 -113 -18 -176 -40 -240 -8
-24 -12 -48 -9 -53 4 -6 1 -7 -7 -2 -10 6 -12 4 -7 -8 4 -12 1 -17 -10 -17
-13 0 -14 7 -9 38 4 20 11 80 16 131 9 83 19 135 46 229 3 12 11 22 16 22 7 0
8 -35 4 -100z m231 40 c1 -11 -2 -18 -7 -15 -4 3 -6 -3 -4 -12 3 -10 -2 -27
-10 -38 -15 -20 -15 -20 -17 0 -1 11 -5 2 -10 -20 -4 -22 -6 -60 -4 -85 24
-253 19 -399 -17 -464 -7 -11 -12 -24 -13 -28 0 -3 -3 -10 -7 -14 -5 -4 -8 8
-8 28 0 19 -9 70 -20 113 -37 145 -25 295 35 430 35 78 38 85 57 105 23 25 23
25 25 0z m-466 -33 c-10 -9 -11 -8 -5 6 3 10 9 15 12 12 3 -3 0 -11 -7 -18z
m-256 -27 c9 -16 13 -30 11 -30 -3 0 -12 14 -21 30 -9 17 -13 30 -11 30 3 0
12 -13 21 -30z m56 -57 l24 -26 -27 19 c-15 10 -28 22 -28 27 0 12 5 8 31 -20z
m130 -86 c-7 -7 -14 -8 -21 -1 -6 6 -2 10 12 11 16 2 18 -1 9 -10z m760 -437
c-46 -139 -101 -255 -156 -329 -14 -19 -25 -43 -25 -53 0 -10 -4 -18 -8 -18
-5 0 -9 -7 -9 -15 0 -22 12 -18 25 8 59 117 151 254 207 307 26 25 46 41 43
35 -25 -53 -47 -104 -78 -178 -41 -99 -95 -171 -146 -192 -43 -18 -60 -12 -73
25 -7 22 -6 32 4 40 7 6 23 52 35 103 20 82 99 273 118 287 5 3 19 21 32 40
26 39 72 91 76 87 2 -1 -19 -68 -45 -147z m-491 50 c0 -5 -5 -10 -11 -10 -5 0
-7 5 -4 10 3 6 8 10 11 10 2 0 4 -4 4 -10z m260 -371 c0 -5 -4 -9 -10 -9 -5 0
-10 7 -10 16 0 8 5 12 10 9 6 -3 10 -10 10 -16z m15 -29 c3 -5 -1 -10 -9 -10
-9 0 -16 5 -16 10 0 6 4 10 9 10 6 0 13 -4 16 -10z m-455 -82 c0 -6 -7 -5 -15
2 -8 7 -15 17 -15 22 0 6 7 5 15 -2 8 -7 15 -17 15 -22z m490 -32 c0 -3 -4 -8
-10 -11 -5 -3 -10 -1 -10 4 0 6 5 11 10 11 6 0 10 -2 10 -4z m-390 -68 c0 -6
-6 -5 -15 2 -8 7 -15 14 -15 16 0 2 7 1 15 -2 8 -4 15 -11 15 -16z m56 -39 c3
-6 -5 -3 -20 6 -14 10 -26 19 -26 22 0 7 39 -17 46 -28z m54 -619 c0 -5 -5
-10 -11 -10 -5 0 -7 5 -4 10 3 6 8 10 11 10 2 0 4 -4 4 -10z m287 -32 c-3 -7
-5 -2 -5 12 0 14 2 19 5 13 2 -7 2 -19 0 -25z m-331 7 c-11 -8 -25 -15 -30
-15 -6 0 -2 7 8 15 11 8 25 15 30 15 6 0 2 -7 -8 -15z m-36 -30 c0 -2 -9 -9
-20 -15 -16 -9 -18 -8 -14 5 5 13 34 22 34 10z m-60 -40 c-7 -8 -17 -15 -23
-15 -6 0 -2 7 9 15 25 19 30 19 14 0z m425 -35 c3 -5 0 -10 -7 -10 -7 0 11
-14 40 -30 53 -31 103 -88 128 -147 8 -18 14 -35 14 -38 1 -3 16 -41 36 -86
36 -86 37 -112 1 -68 -12 15 -38 46 -58 70 -20 24 -67 97 -104 162 -37 65 -70
116 -72 113 -3 -3 -1 -10 3 -17 4 -7 8 -23 9 -36 0 -12 10 -32 21 -45 42 -46
154 -261 154 -295 0 -4 13 -47 29 -96 15 -48 25 -87 22 -87 -17 0 -106 122
-143 194 -38 76 -55 122 -78 214 -10 41 -27 80 -36 87 -16 11 -16 17 -4 61 7
27 15 52 17 57 6 10 21 9 28 -3z m-475 -24 c0 -2 -8 -10 -17 -17 -16 -13 -17
-12 -4 4 13 16 21 21 21 13z m-60 -77 c0 -5 -4 -7 -10 -4 -5 3 -10 1 -10 -6 0
-7 -3 -10 -6 -6 -8 7 4 27 17 27 5 0 9 -5 9 -11z m470 -69 c-6 -11 -15 -20
-20 -20 -6 0 -2 9 7 20 10 11 19 20 21 20 1 0 -2 -9 -8 -20z m-552 -87 c-2 -9
-8 -18 -15 -20 -7 -3 -9 3 -6 16 6 25 26 28 21 4z m250 -174 c34 -13 62 -26
62 -30 0 -14 -129 -17 -202 -4 -79 14 -208 52 -208 62 0 3 64 3 143 1 116 -5
154 -10 205 -29z m-130 -334 c-39 -63 -87 -112 -131 -135 -74 -39 -145 -100
-188 -164 -55 -81 -103 -106 -158 -81 -20 9 -49 28 -66 41 l-30 25 25 17 c31
20 101 90 117 117 11 18 12 16 12 -18 1 -21 -4 -47 -9 -58 -14 -25 -3 -44 15
-29 8 7 12 24 9 46 -2 19 -6 50 -8 69 -3 20 0 35 6 35 5 0 22 9 36 19 58 41
150 79 206 86 59 7 125 31 161 58 28 22 29 15 3 -28z m113 -121 c1 -138 -18
-274 -41 -312 -9 -14 -10 -10 -6 18 3 19 6 96 7 171 0 74 5 160 10 190 22 123
30 106 30 -67z m-136 -41 c-5 -117 -24 -193 -67 -270 -54 -98 -89 -145 -160
-216 -38 -37 -66 -71 -64 -75 3 -5 -10 -27 -28 -50 -28 -35 -35 -39 -39 -23
-2 10 0 26 6 36 6 12 6 16 -1 11 -6 -3 -11 12 -14 39 -2 33 0 45 11 45 10 0
12 12 8 51 -7 62 13 143 56 229 34 68 117 166 161 189 14 8 23 18 20 22 -3 5
1 7 8 4 7 -3 27 -1 43 4 l30 9 -27 1 -28 1 43 45 c23 24 43 45 44 45 1 0 0
-44 -2 -97z m-175 -43 c0 -5 -5 -10 -11 -10 -5 0 -7 5 -4 10 3 6 8 10 11 10 2
0 4 -4 4 -10z m-45 -39 c3 -5 2 -12 -3 -15 -5 -3 -9 1 -9 9 0 17 3 19 12 6z
m-530 -33 c90 -11 124 -23 196 -65 57 -34 78 -60 42 -50 -10 3 -36 8 -58 12
-22 4 -67 19 -100 35 -75 36 -196 70 -227 64 -13 -2 -7 2 12 10 19 8 42 12 50
9 8 -3 47 -10 85 -15z m-319 -183 c51 -26 124 -88 124 -105 0 -6 5 -10 11 -10
5 0 7 -5 3 -12 -5 -8 -12 -5 -24 9 -9 11 -31 28 -49 38 -30 15 -122 77 -145
97 -22 18 33 7 80 -17z m1034 21 c0 -3 -4 -8 -10 -11 -5 -3 -10 -1 -10 4 0 6
5 11 10 11 6 0 10 -2 10 -4z m-323 -93 c-3 -10 -5 -4 -5 12 0 17 2 24 5 18 2
-7 2 -21 0 -30z m-158 -84 c1 -52 -34 -185 -59 -228 -25 -42 7 220 37 309 9
26 22 -20 22 -81z m-56 -6 c-32 -139 -110 -335 -120 -305 -14 38 40 236 82
303 14 21 25 43 25 49 0 5 6 10 13 10 12 0 12 -9 0 -57z m-668 17 c22 -9 50
-16 62 -15 13 1 19 -3 15 -9 -20 -34 -63 -71 -107 -95 -46 -24 -59 -26 -168
-26 -102 1 -120 3 -129 18 -5 10 -14 15 -19 11 -6 -4 -6 -11 2 -20 9 -11 8
-14 -4 -14 -17 0 -33 33 -19 38 5 1 28 21 51 42 96 92 208 116 316 70z m250 0
c3 -6 -1 -7 -9 -4 -18 7 -21 14 -7 14 6 0 13 -4 16 -10z m631 -30 c0 -11 -4
-20 -8 -20 -10 0 -11 24 -1 33 9 9 9 10 9 -13z m-672 -74 c-15 -41 -88 -149
-123 -180 -44 -40 -21 11 49 110 39 54 70 102 70 107 0 5 -34 -22 -74 -61 -41
-39 -90 -78 -108 -88 -33 -16 -32 -16 12 32 25 26 50 53 55 59 6 6 32 28 58
48 39 29 51 34 61 24 11 -10 11 -19 0 -51z m-94 -76 c0 -5 -4 -10 -10 -10 -5
0 -10 5 -10 10 0 6 5 10 10 10 6 0 10 -4 10 -10z"/>
<path d="M1985 4107 c1 -31 11 -70 25 -97 23 -46 134 -214 157 -238 7 -7 31
-45 54 -83 38 -64 67 -93 52 -51 -6 15 -5 15 11 3 14 -12 12 -6 -5 25 -26 44
-107 159 -152 217 -35 44 -117 202 -117 226 0 9 -6 24 -14 33 -11 15 -12 10
-11 -35z"/>
<path d="M756 4145 c9 -14 30 -25 57 -30 23 -4 47 -9 53 -10 34 -8 254 -12
254 -5 0 9 -43 15 -183 25 -43 3 -105 14 -137 24 l-59 19 15 -23z"/>
<path d="M2261 878 c-6 -7 -45 -65 -88 -128 -42 -63 -92 -137 -111 -165 -59
-86 -82 -140 -79 -184 1 -22 7 -44 11 -48 5 -4 6 -3 2 4 -3 6 -2 14 4 18 5 3
10 13 10 21 0 22 47 122 81 172 16 24 29 47 29 52 0 4 3 10 8 12 4 2 30 35 58
73 84 115 117 175 77 144 -17 -13 -17 -12 0 14 18 27 16 37 -2 15z"/>
<path d="M955 410 c-123 -9 -166 -18 -199 -39 -30 -20 -20 -39 11 -23 33 17
107 31 193 37 116 8 152 14 145 26 -7 10 -12 10 -150 -1z"/>
<path d="M1406 3930 c-37 -74 -112 -174 -125 -165 -7 4 -34 -65 -28 -71 8 -8
145 181 170 234 41 88 26 90 -17 2z"/>
<path d="M1890 3721 c0 -5 7 -22 15 -37 l15 -29 0 38 c0 26 -4 37 -15 37 -8 0
-15 -4 -15 -9z"/>
<path d="M1395 3380 c-7 -11 5 -40 16 -40 5 0 14 8 20 18 9 14 24 17 100 14
55 -2 89 0 89 7 0 12 -217 13 -225 1z"/>
<path d="M1945 3295 c4 -11 12 -32 17 -47 7 -19 7 -38 0 -57 -12 -34 -2 -54
24 -49 24 4 30 44 11 66 -8 9 -17 28 -20 42 -3 14 -13 34 -22 45 -17 20 -17
20 -10 0z"/>
<path d="M2695 1980 c-3 -5 -1 -10 4 -10 6 0 11 5 11 10 0 6 -2 10 -4 10 -3 0
-8 -4 -11 -10z"/>
<path d="M2698 1443 c-5 -27 -2 -61 5 -56 5 3 7 -1 6 -8 -1 -8 6 -41 16 -74
16 -52 17 -79 9 -240 -10 -220 -9 -275 7 -289 9 -8 10 -8 5 2 -4 6 -3 12 2 12
10 0 26 237 25 360 0 79 -22 179 -54 244 -10 21 -16 43 -13 47 3 5 3 9 0 9 -3
0 -7 -3 -8 -7z"/>
<path d="M2650 1415 c0 -9 6 -12 15 -9 8 4 15 7 15 9 0 2 -7 5 -15 9 -9 3 -15
0 -15 -9z"/>
<path d="M1595 1090 c-19 -14 -40 -19 -57 -16 -29 6 -47 -9 -31 -25 12 -12 92
21 112 45 18 21 12 20 -24 -4z"/>
<path d="M1515 430 c-9 -10 -47 -37 -84 -59 -36 -22 -80 -53 -96 -68 -36 -33
-69 -106 -84 -188 -7 -33 -14 -70 -16 -82 -5 -20 -2 -20 51 10 90 52 207 141
240 183 39 49 54 93 54 155 0 38 -4 51 -19 59 -26 13 -25 13 -46 -10z m47 -54
c-2 -93 -49 -156 -178 -242 -46 -31 -86 -60 -90 -65 -3 -5 -11 -9 -19 -9 -36
0 7 136 65 210 31 39 157 130 179 130 29 0 -48 -106 -124 -173 -79 -69 -133
-132 -123 -142 3 -3 27 16 54 42 28 27 76 73 108 103 64 61 98 117 102 170 2
19 3 37 3 40 1 2 6 -1 12 -7 6 -6 11 -32 11 -57z"/>
</g>
</svg>
