<?xml version="1.0" standalone="no"?>
<!DOCTYPE svg PUBLIC "-//W3C//DTD SVG 20010904//EN"
 "http://www.w3.org/TR/2001/REC-SVG-20010904/DTD/svg10.dtd">
<svg version="1.0" xmlns="http://www.w3.org/2000/svg"
 width="82.000000pt" height="63.000000pt" viewBox="0 0 82.000000 63.000000"
 preserveAspectRatio="xMidYMid meet">
<metadata>
Created by potrace 1.10, written by Peter Selinger 2001-2011
</metadata>
<g transform="translate(0.000000,63.000000) scale(0.100000,-0.100000)"
fill="#6fa322" stroke="none">
<path d="M305 509 c-46 -29 -102 -105 -123 -168 -16 -47 -15 -116 3 -151 18
-36 73 -70 112 -70 30 0 97 39 119 68 9 12 14 9 33 -22 13 -20 39 -48 59 -61
38 -26 58 -32 47 -15 -3 5 1 10 10 10 9 0 13 -4 10 -10 -10 -16 7 -12 43 10
67 41 75 129 21 231 -18 32 -36 59 -41 59 -5 0 -6 5 -3 10 3 6 11 10 16 10 6
0 7 -4 4 -10 -10 -15 11 -12 24 4 10 12 6 22 -22 52 l-34 37 -47 -18 c-31 -12
-45 -23 -42 -32 3 -7 2 -13 -3 -13 -4 0 -8 -7 -8 -15 0 -18 9 -19 25 -3 9 9
12 9 12 0 0 -7 -6 -12 -12 -12 -7 -1 -1 -7 14 -16 15 -8 33 -24 39 -37 10 -19
8 -19 -17 5 -28 26 -90 55 -99 46 -2 -2 3 -17 11 -33 8 -16 13 -36 11 -44 -3
-14 -5 -13 -10 2 -4 9 -10 25 -14 35 -3 9 -5 20 -5 25 1 4 -3 7 -10 7 -6 0 -3
6 8 14 10 8 16 18 12 22 -4 4 -16 -4 -27 -17 -22 -26 -27 -44 -11 -34 6 3 7
-1 4 -9 -3 -9 -11 -13 -17 -9 -6 4 -8 -9 -5 -39 6 -51 -4 -69 -66 -117 -69
-54 -94 -34 -75 62 17 93 97 189 167 203 28 6 32 4 32 -15 0 -22 14 -28 25
-11 10 17 -15 40 -43 40 -37 0 -105 -43 -133 -84 -13 -20 -28 -36 -32 -36 -13
0 29 54 66 87 53 47 89 58 126 39 27 -15 30 -15 25 -1 -8 21 -59 46 -100 50
-23 2 -47 -6 -79 -26z m13 -47 c-53 -57 -72 -88 -64 -109 3 -8 1 -24 -5 -35
-17 -32 -22 -107 -9 -139 14 -32 45 -45 88 -35 20 5 23 4 12 -4 -30 -20 -77
-12 -100 17 -19 24 -21 37 -17 98 2 38 8 79 12 89 6 13 5 17 -3 12 -6 -3 -14
-1 -18 5 -4 8 -3 9 4 5 7 -4 14 4 18 21 12 52 34 83 72 102 57 31 59 25 10
-27z m275 -20 c13 -12 15 -17 5 -24 -7 -4 -20 -8 -28 -8 -13 0 -13 1 0 10 13
9 13 12 -2 21 -10 5 -18 15 -18 20 0 11 15 4 43 -19z m-76 -4 c-3 -8 -6 -5 -6
6 -1 11 2 17 5 13 3 -3 4 -12 1 -19z m29 -13 c1 -8 -2 -15 -6 -15 -5 0 -8 9
-7 20 1 21 10 18 13 -5z m20 -52 c-10 -10 -19 5 -10 18 6 11 8 11 12 0 2 -7 1
-15 -2 -18z m-27 -35 c30 -31 71 -121 71 -156 -1 -65 -22 -71 -76 -20 -17 15
-33 26 -37 23 -4 -3 -5 -2 -2 1 2 4 -3 20 -11 36 -14 26 -14 34 2 73 9 24 14
51 11 60 -10 25 8 17 42 -17z m76 -4 c29 -29 46 -75 43 -112 l-4 -37 -13 30
c-7 17 -14 43 -17 59 -4 30 -20 56 -36 56 -5 0 -5 -8 1 -18 5 -10 20 -47 32
-82 20 -59 21 -65 5 -96 -8 -19 -20 -34 -26 -34 -5 0 -1 15 10 33 20 33 20 34
-1 98 -12 35 -26 69 -31 75 -9 13 -1 44 12 44 5 0 16 -7 25 -16z m-171 -59
c-3 -7 6 -36 20 -63 27 -52 46 -73 47 -50 0 7 5 2 10 -11 13 -32 7 -35 -24
-11 -33 26 -77 115 -77 154 1 29 2 30 15 13 7 -11 11 -25 9 -32z m-231 -12
c-9 -24 -23 -13 -23 19 0 30 1 30 14 13 8 -11 12 -25 9 -32z m177 -53 c-22
-31 -50 -50 -72 -50 -13 1 71 79 85 80 5 0 -1 -14 -13 -30z"/>
</g>
</svg>
